<?xml version="1.0" standalone="no"?>
<!DOCTYPE svg PUBLIC "-//W3C//DTD SVG 1.1//EN" "http://www.w3.org/Graphics/SVG/1.1/DTD/svg11.dtd" >
<svg xmlns="http://www.w3.org/2000/svg">
<metadata></metadata>
<defs>
<font id="sauna-boldregular" horiz-adv-x="1169" >
<font-face units-per-em="2048" ascent="1638" descent="-410" />
<missing-glyph horiz-adv-x="391" />
<glyph horiz-adv-x="2048" />
<glyph horiz-adv-x="2048" />
<glyph horiz-adv-x="682" />
<glyph horiz-adv-x="995" d="M147 1200q0 -49 26 -91t72 -70.5t109.5 -45t137.5 -16.5t137 17.5t108 46t71 68.5t26 85q0 51 -30 81t-83 40q-47 -49 -104.5 -81t-127.5 -32q-61 0 -112 32t-101 83q-53 -4 -91 -36t-38 -81z" />
<glyph horiz-adv-x="641" d="M164 1102q0 -72 37 -102.5t112 -30.5q92 0 128 42t36 101q0 55 -32.5 95t-112.5 40q-84 0 -126 -41t-42 -104z" />
<glyph horiz-adv-x="792" d="M168 1147q0 -113 54 -155t159 -42q117 0 178.5 56.5t61.5 154.5q0 92 -50.5 144.5t-160.5 52.5q-115 0 -178.5 -58.5t-63.5 -152.5zM322 1147q0 35 19 56.5t58 21.5q37 0 52.5 -20.5t15.5 -51.5q0 -35 -17.5 -56.5t-58.5 -21.5q-31 0 -50 16.5t-19 55.5z" />
<glyph unicode="&#xa;" horiz-adv-x="1159" d="M72 1059q0 -39 23.5 -66.5t60.5 -40.5l395 199q35 16 48 45t13 64q0 47 -32.5 85.5t-85.5 55.5l-377 -264q-29 -18 -37 -38t-8 -40zM547 1059q0 -39 23.5 -66.5t60.5 -40.5l395 199q35 16 48 45t13 64q0 47 -32.5 85.5t-85.5 55.5l-377 -264q-29 -18 -37 -38t-8 -40z" />
<glyph horiz-adv-x="761" d="M211 -211q0 -88 44 -126t126 -38q123 0 179 33t56 84q0 45 -22 68q-16 -2 -32.5 -3.5t-33.5 -1.5q-80 0 -79 76q0 8 5 45t9 65.5t4 33.5l-211 18q-27 -102 -36 -158.5t-9 -95.5z" />
<glyph horiz-adv-x="1026" d="M166 1239l188 -285q29 -10 51.5 -15t51.5 -5q41 0 70.5 5t51 14.5t38 24.5t32.5 36l96 125q29 35 37.5 57.5t8.5 44.5q0 53 -37 79t-97 26l-143 -205l-98 162q-18 29 -44 38t-63 9q-63 0 -102 -29t-41 -82z" />
<glyph unicode="&#xd;" horiz-adv-x="0" />
<glyph horiz-adv-x="1269" d="M72 37q16 -39 50 -57.5t79 -18.5q59 0 96 49l922 1209q-29 74 -121 73q-41 0 -69 -22.5t-58 -63.5z" />
<glyph horiz-adv-x="1191" d="M27 739q0 -23 6 -48t16 -42l86 -4v-31t-1 -80t-1 -110v-125q0 -68 1 -122t3 -101q4 -49 41 -67.5t105 -18.5q45 0 80.5 5t62.5 19v633q14 -2 27 -2h30q63 0 97 34t34 89q0 18 -6 42t-12 34h-174q0 90 4 129t12 55t28.5 26.5t72.5 10.5q18 0 53 -1t49 -5q12 14 21.5 41.5 t9.5 50.5q2 53 -35 85t-133 32q-92 0 -160 -20.5t-113 -69t-66.5 -129t-21.5 -201.5q-70 -4 -93 -30.5t-23 -78.5zM647 737q0 -23 4 -44t15 -38l108 -4l-1 -71q-1 -72 -1 -199q0 -117 1 -188.5t3 -118.5q4 -49 44 -66.5t108 -17.5q45 0 83 4t64 18v758q0 39 -45 59.5 t-151 20.5q-129 0 -180.5 -27.5t-51.5 -85.5zM770 1102q0 -72 37 -102.5t113 -30.5q92 0 127.5 42t35.5 101q0 55 -32.5 95t-112.5 40q-84 0 -126 -41t-42 -104z" />
<glyph horiz-adv-x="1153" d="M27 739q0 -23 6 -48t16 -42l86 -4v-31t-1 -80t-1 -110v-125q0 -68 1 -122t3 -101q4 -49 41 -67.5t105 -18.5q45 0 80.5 5t62.5 19v633q14 -2 31 -2h32q63 0 97.5 34t34.5 89q0 18 -6.5 42t-12.5 34h-180q0 90 4 129t12 55t28.5 26.5t72.5 10.5q18 0 53 -1t49 -5 q12 14 21.5 41.5t9.5 50.5q2 53 -35 85t-133 32q-92 0 -160 -20.5t-113 -69t-66.5 -129t-21.5 -201.5q-70 -4 -93 -30.5t-23 -78.5zM721 358q0 -63 1 -127.5t3 -136.5q2 -61 39 -82.5t135 -21.5q137 0 190.5 28.5t53.5 92.5q0 16 -3 34.5t-12 32.5l-102 2v1047 q-27 10 -71 16t-76 6q-145 0 -152 -100q0 -23 -1 -62.5t-2 -102t-2 -149.5t-1 -204v-144v-129z" />
<glyph horiz-adv-x="948" d="M18 1004q0 -23 4.5 -42.5t14.5 -37.5l106 -4v-39t-1 -99.5t-1 -130.5l-37 -12q-39 -14 -60 -32.5t-21 -59.5q0 -29 18 -58.5t55 -46.5l45 13q0 -158 2 -250t7 -123q4 -27 17 -43t53 -25.5t113 -13.5t197 -4q123 0 201 5t122 19.5t59.5 42t15.5 72.5q0 39 -15 66h-458 l2 348l200 61q78 25 100.5 61t22.5 89q0 29 -15 53.5t-44 38.5l-264 -90v280q0 41 -55.5 56.5t-155.5 15.5q-129 0 -178.5 -27.5t-49.5 -82.5z" />
<glyph horiz-adv-x="528" d="M0 709q0 -27 16.5 -53.5t49.5 -41.5l26 7v-140v-127q0 -61 1 -125.5t3 -134.5q2 -61 39 -82.5t135 -21.5q137 0 190.5 28.5t53.5 92.5q0 16 -3 34.5t-11 32.5l-103 2v529l47 14q72 23 91.5 55.5t19.5 79.5q0 57 -51 84l-107 -39v324q-27 10 -70.5 16t-76.5 6 q-145 0 -152 -100q-2 -37 -3 -119t-3 -231l-18 -6q-35 -12 -54.5 -30t-19.5 -54z" />
<glyph horiz-adv-x="993" d="M37 117q0 -27 11 -59.5t32 -55.5q10 -2 47 -1t96 1h123t144.5 -1t138 -2t102.5 -1h41q104 0 147.5 32.5t43.5 98.5q0 20 -4.5 40.5t-14.5 37.5h-549l486 573q41 47 60.5 94.5t19.5 106.5q0 29 -9.5 67.5t-29.5 63.5h-682q-104 0 -145.5 -36t-41.5 -91q0 -31 5 -49t16 -35 h536l-504 -606q-43 -53 -56 -91t-13 -87zM197 1520l186 -285q29 -10 52.5 -15.5t51.5 -5.5q82 0 121 18.5t72 59.5l96 127q29 35 37 57.5t8 45.5q0 53 -36.5 78.5t-96.5 25.5l-143 -205l-99 162q-18 29 -43.5 38t-62.5 9q-66 0 -103.5 -28.5t-39.5 -81.5z" />
<glyph horiz-adv-x="919" d="M45 106q0 -25 9 -54t28 -52h70q74 0 169 -1t180 -2t142 -2l57 -1q94 0 136.5 36t42.5 93q0 18 -6.5 38.5t-12.5 33.5h-420l361 413q39 43 52 74t13 66q0 23 -8 51t-20 45h-615q-86 0 -120.5 -32t-34.5 -79q0 -63 26 -94h379l-375 -414q-29 -35 -41 -59.5t-12 -59.5z M164 1239l188 -285q29 -10 51.5 -15t51.5 -5q41 0 70.5 5t51 14.5t38 23.5t32.5 35l96 127q29 35 37 57.5t8 44.5q0 53 -36.5 79t-96.5 26l-143 -205l-98 162q-18 29 -44 38t-63 9q-63 0 -102 -29t-41 -82z" />
<glyph unicode=" "  horiz-adv-x="391" />
<glyph unicode="&#x09;" horiz-adv-x="391" />
<glyph unicode="&#xa0;" horiz-adv-x="391" />
<glyph unicode="!" horiz-adv-x="589" d="M123 141q0 -86 44 -118.5t122 -32.5q98 0 140 48t42 116t-36 107.5t-124 39.5q-96 0 -142 -44t-46 -116zM139 1075l25 -606q23 -14 56.5 -23.5t70.5 -9.5q86 0 118.5 26.5t34.5 80.5l39 700q-35 20 -74.5 30.5t-95.5 10.5q-104 0 -141 -47t-33 -162z" />
<glyph unicode="&#x22;" horiz-adv-x="983" d="M113 1004l14 -369q29 -12 64.5 -17.5t72.5 -5.5q61 0 97 26t38 77l7 286l4 119q-45 29 -134 29q-90 0 -127.5 -40t-35.5 -105zM573 1004l15 -369q29 -12 64.5 -17.5t72.5 -5.5q61 0 97 26t38 77l6 286l4 119q-45 29 -133 29q-90 0 -128 -40t-36 -105z" />
<glyph unicode="#" horiz-adv-x="878" d="M41 281q0 -43 22 -72l113 -2l-31 -191q12 -10 33 -17t39 -7q35 0 55.5 11t26.5 48l25 154l153 -2l-28 -187q12 -10 32.5 -17t38.5 -7q35 0 54.5 11t25.5 48l25 150h61q55 0 89 19.5t34 70.5q0 23 -6 41t-15 28l-118 -2h-17l21 134h43q53 0 87 19.5t34 70.5q0 23 -6.5 41 t-14.5 28l-115 -4l17 105l18 98q-12 10 -30.5 16t-40.5 6q-45 0 -65.5 -21.5t-31.5 -80.5l-18 -121h-152l19 103l18 98q-12 10 -30.5 16t-40.5 6q-47 0 -68 -21.5t-29 -80.5l-20 -121h-88q-45 0 -67.5 -21.5t-22.5 -56.5q0 -20 5 -38.5t17 -32.5l131 -2l-20 -140h-72 q-43 0 -66.5 -21.5t-23.5 -55.5zM350 358l23 138l151 -2l-20 -136h-154z" />
<glyph unicode="$" horiz-adv-x="835" d="M37 152q0 -84 81 -120t210 -42l-2 -207q18 -10 44.5 -14.5t55.5 -4.5q51 0 78.5 20t27.5 71v145q135 29 194.5 103.5t59.5 172.5q0 51 -15 91.5t-52 69t-96.5 48t-147.5 31.5q-86 10 -109.5 22.5t-23.5 41.5q0 25 27.5 41t95.5 16q63 0 130 -13.5t118 -43.5 q47 16 66.5 51t19.5 69q0 68 -62.5 105t-181.5 47v215q-12 6 -39 11t-57 5q-66 0 -94.5 -24.5t-28.5 -83.5v-135q-133 -31 -201.5 -111t-68.5 -178q0 -109 66.5 -167t211.5 -79q55 -6 87 -12t48.5 -14.5t20.5 -17.5t4 -23q0 -20 -21.5 -37t-97.5 -17q-31 0 -70 5.5 t-76.5 14.5t-71.5 23.5t-58 30.5q-33 -12 -52.5 -42t-19.5 -64z" />
<glyph unicode="%" horiz-adv-x="1603" d="M51 561q0 -125 68.5 -185.5t195.5 -60.5q141 0 226.5 69t85.5 214q0 125 -69 191.5t-204 66.5q-80 0 -137 -23.5t-94 -63.5t-54.5 -94t-17.5 -114zM240 580q0 127 118 127q57 0 81 -34t24 -87q0 -61 -32 -93t-83 -32q-109 0 -108 119zM340 -29q14 -37 48 -56t77 -19 q35 0 58.5 18t45.5 49l662 860q-12 35 -43 59.5t-82 24.5q-47 0 -74.5 -29.5t-62.5 -76.5zM977 233q0 -125 68.5 -185t195.5 -60q141 0 226 68.5t85 213.5q0 125 -68.5 191.5t-203.5 66.5q-80 0 -137.5 -23.5t-94 -63.5t-54 -94t-17.5 -114zM1165 252q0 127 119 127 q57 0 81 -34t24 -87q0 -61 -32 -93t-83 -32q-109 0 -109 119z" />
<glyph unicode="&#x26;" horiz-adv-x="1296" d="M63 317q0 -168 100.5 -249.5t311.5 -81.5q111 0 185.5 25.5t140.5 68.5q29 -31 50 -51.5t45 -30.5t51.5 -14t66.5 -4q115 0 174 39t59 98q0 51 -39 82q-20 -8 -53 -10.5t-49 -2.5q-29 0 -52.5 12.5t-49.5 41.5q51 70 78.5 141.5t27.5 163.5q0 78 -31.5 121t-109.5 43 q-33 0 -58.5 -9.5t-40.5 -23.5q8 -29 12.5 -73t4.5 -79t-7.5 -62.5t-23.5 -55.5l-262 258q-43 43 -69.5 70.5t-40 47t-18.5 33.5t-5 31q0 43 34.5 71.5t112.5 28.5q47 0 92 -6t72 -16q16 10 28.5 36.5t12.5 55.5q0 68 -55.5 103.5t-190.5 35.5q-96 0 -166.5 -22.5 t-116.5 -60.5t-68.5 -90t-22.5 -112q0 -74 27.5 -133t101.5 -129q-135 -33 -197 -112.5t-62 -178.5zM340 336q0 55 26.5 90t73.5 47l232 -242q-33 -18 -75 -29.5t-87 -11.5q-80 0 -125 34t-45 112z" />
<glyph unicode="'" horiz-adv-x="501" d="M115 1004l12 -369q29 -12 64.5 -17.5t72.5 -5.5q61 0 98 26t37 77l9 286l4 119q-45 29 -136 29q-88 0 -126.5 -40t-34.5 -105z" />
<glyph unicode="(" horiz-adv-x="716" d="M131 444q0 -217 29.5 -371.5t81 -254t120 -145.5t144.5 -46t119 25.5t39 91.5q-90 55 -145.5 117.5t-86.5 144.5t-42 189.5t-11 250.5t12 252t45 190t89.5 139t144.5 103q12 66 -24 103t-101 37q-82 0 -157 -49.5t-132 -151.5t-91 -258t-34 -367z" />
<glyph unicode=")" horiz-adv-x="716" d="M49 -236q-14 -66 21.5 -102.5t101.5 -36.5q82 0 158 49.5t132 151.5t90 257t34 368q0 217 -30 371.5t-81 254t-118.5 145.5t-143.5 46t-120 -25.5t-38 -91.5q88 -55 143.5 -117.5t86 -144.5t42 -189.5t11.5 -250.5q0 -145 -12.5 -253t-45 -189t-89 -139t-142.5 -104z" />
<glyph unicode="*" horiz-adv-x="1026" d="M64 956.5q2 -32.5 24 -57.5l279 -65l-195 -201q-10 -35 9 -65t48 -50q27 -18 57.5 -26.5t61.5 6.5l158 256l139 -260q29 -20 63.5 -11t63.5 31q25 16 42 44t13 60l-176 213l273 48q29 23 29.5 58.5t-9.5 70.5q-10 29 -30.5 53t-53.5 33l-270 -119l43 291q-14 35 -48 46 t-69 11q-31 0 -60.5 -11.5t-45.5 -39.5l20 -289l-266 127q-37 -2 -59.5 -29.5t-32.5 -62.5q-10 -29 -8 -61.5z" />
<glyph unicode="+" horiz-adv-x="958" d="M82 426q0 -57 31 -94l247 -4v-174v-68q45 -29 113 -29q55 0 88 35t31 98v134h127q72 -2 113.5 23.5t41.5 90.5q0 29 -8 51.5t-18 36.5l-119 -4h-137l4 262q-20 14 -48 19.5t-61 5.5q-72 0 -102.5 -41t-30.5 -115v-131h-153q-55 0 -87 -24.5t-32 -71.5z" />
<glyph unicode="," horiz-adv-x="630" d="M125 145q0 -18 1 -32.5t9 -30.5q94 -10 132 -39t38 -70q0 -39 -30.5 -73.5t-122.5 -75.5q-2 -10 -2 -25q0 -66 83 -65q68 0 125.5 24.5t99.5 67.5t66.5 100t24.5 125q0 115 -59.5 183.5t-184.5 68.5q-92 0 -136 -46t-44 -112z" />
<glyph unicode="-" horiz-adv-x="702" d="M45 455q0 -27 7 -52.5t24 -46.5l418 -8q72 -2 114.5 25.5t42.5 93.5q0 29 -9 54.5t-19 39.5l-129 -4h-330q-55 0 -87 -27.5t-32 -74.5z" />
<glyph unicode="." horiz-adv-x="593" d="M123 141q0 -86 44 -118.5t122 -32.5q98 0 140 48t42 116t-36 107.5t-124 39.5q-96 0 -142 -44t-46 -116z" />
<glyph unicode="/" horiz-adv-x="804" d="M86 31q20 -35 59 -52.5t74 -17.5q31 0 54.5 10.5t35.5 38.5l512 1221q-16 29 -49 45t-74 16q-90 0 -125 -86z" />
<glyph unicode="0" horiz-adv-x="1009" d="M41 385q0 -205 110.5 -302t315.5 -97q113 0 206 27.5t158.5 84t101.5 142t36 202.5q0 201 -109.5 308.5t-331.5 107.5q-129 0 -221 -38t-151.5 -102.5t-87 -150.5t-27.5 -182zM324 412q0 117 55 172t160 55q102 0 144 -60.5t42 -154.5q0 -113 -56.5 -169t-148.5 -56 q-102 0 -149 51t-47 162z" />
<glyph unicode="1" horiz-adv-x="811" d="M59 96q0 -51 27 -90l500 -4q115 0 158.5 32t43.5 95q0 23 -7 44.5t-17 39.5h-176v565q0 39 -29 60.5t-113 21.5q-35 0 -61.5 -3t-53 -10t-54 -18.5t-64.5 -27.5q-92 -41 -123 -75t-31 -75q0 -49 27 -80.5t72 -42.5l141 70v-389q-133 -4 -186.5 -30.5t-53.5 -82.5z" />
<glyph unicode="2" horiz-adv-x="870" d="M47 106q0 -27 7 -57.5t20 -46.5q12 2 35 2h55q37 0 103.5 -1t138.5 -1t140 -1t108 -2t44 -1q63 0 100.5 28.5t37.5 94.5q0 25 -7.5 47t-15.5 35h-379q113 61 185.5 108t114.5 90t58.5 88.5t16.5 100.5q0 131 -89 198.5t-284 67.5q-180 0 -280.5 -53t-100.5 -133 q0 -47 23.5 -83t77.5 -42q39 41 100 70.5t125 29.5q82 0 111.5 -25.5t29.5 -72.5q0 -33 -14 -61.5t-60.5 -66.5t-130.5 -90.5t-221 -129.5q-27 -16 -38 -35t-11 -58z" />
<glyph unicode="3" horiz-adv-x="856" d="M18 -168q0 -63 60.5 -100t195.5 -37q260 0 399.5 95t139.5 286q0 45 -14.5 86t-44 73.5t-74.5 53t-109 24.5q109 23 158 99t49 170q0 61 -18.5 111t-60.5 87t-110.5 56.5t-166.5 19.5q-197 0 -288 -54t-91 -134q0 -53 28.5 -85t75.5 -38q43 51 98.5 73.5t108.5 22.5 q72 0 101.5 -28.5t29.5 -82.5q0 -82 -48 -115.5t-156 -33.5q-35 0 -49.5 -22.5t-14.5 -63.5q0 -31 8 -59.5t31 -49.5q23 2 42 3t42 1q102 0 137 -33.5t35 -101.5q0 -45 -17.5 -73.5t-47 -46t-70.5 -23.5t-90 -6q-31 0 -62.5 3t-62.5 7t-55.5 9t-38.5 12q-29 -16 -39.5 -46 t-10.5 -59z" />
<glyph unicode="4" horiz-adv-x="987" d="M23 117q0 -29 8 -59.5t30 -55.5h478v-246q31 -16 62.5 -23t78.5 -7q76 0 111.5 27.5t35.5 99.5l-2 151q84 0 116 25.5t32 91.5q0 18 -4 36.5t-17 41.5h-129l1 59t1 137t1 152t1 102q0 59 -7 99t-27.5 64t-57.5 34t-94 10q-14 0 -50 -4t-50 -8l-482 -619 q-23 -29 -29.5 -54.5t-6.5 -53.5zM254 199l287 379v-379h-287z" />
<glyph unicode="5" horiz-adv-x="854" d="M35 -168q0 -63 56 -100t192 -37q268 0 394 102.5t126 276.5q0 80 -22.5 142.5t-75 106.5t-137.5 67.5t-210 23.5q-10 0 -29.5 -2t-29.5 -2v194h43q45 0 103.5 -1t117.5 -1h92q86 0 125 38t39 108q0 25 -8 52t-27 50l-163 -10h-537l-6 -549q0 -41 6 -74t20 -49q29 4 68 6 t68 2q82 0 134 -9t82.5 -25.5t42 -42t11.5 -56.5q0 -74 -57.5 -105.5t-157.5 -31.5q-59 0 -120.5 10t-90.5 21q-29 -16 -39 -46t-10 -59z" />
<glyph unicode="6" horiz-adv-x="942" d="M49 483q0 -246 95.5 -369.5t306.5 -123.5q205 0 320.5 107.5t115.5 316.5q0 154 -76 234.5t-236 80.5q-78 0 -147.5 -26.5t-103.5 -79.5q14 164 80.5 239.5t220.5 75.5q31 0 65.5 -3t66 -7t59.5 -9.5t42 -11.5q29 16 39 46t10 59q0 63 -68.5 100t-203.5 37 q-164 0 -276.5 -45t-181 -131t-98.5 -210t-30 -280zM322 477q29 25 71.5 42.5t89.5 17.5q80 0 117 -40t37 -122q0 -84 -45 -126t-109 -42q-55 0 -86.5 22.5t-48 59.5t-21.5 86t-5 102z" />
<glyph unicode="7" horiz-adv-x="888" d="M18 711q0 -35 8.5 -62.5t26.5 -46.5h537q-16 -27 -46 -83t-68 -131t-80 -161t-82 -169t-74.5 -157.5t-57.5 -127.5q10 -29 39 -46.5t88 -17.5q57 0 88 16.5t47 57.5q41 100 91.5 213t102.5 223.5t101 210.5t90 172q23 41 31 68.5t8 62.5q0 33 -9 61.5t-28 45.5l-624 6 q-188 2 -189 -135z" />
<glyph unicode="8" horiz-adv-x="970" d="M43 297q0 -309 403 -309q229 0 355.5 96t126.5 274q0 88 -51.5 156t-184.5 115q86 29 138.5 98.5t52.5 165.5q0 127 -86 201.5t-279 74.5q-109 0 -186.5 -24.5t-128.5 -67.5t-75 -101t-24 -128q0 -92 44.5 -162t132.5 -111q-59 -14 -103.5 -42.5t-74 -66.5t-45 -81 t-15.5 -88zM311 326q0 51 31 92t84 69q104 -33 157.5 -75t53.5 -101q0 -66 -46 -98.5t-120 -32.5q-160 0 -160 146zM377 858q0 53 33.5 87t95.5 34q63 0 99 -36t36 -93q0 -47 -25.5 -86t-85.5 -66q-80 29 -116.5 68t-36.5 92z" />
<glyph unicode="9" horiz-adv-x="942" d="M35 -168q0 -63 67.5 -100t202.5 -37q166 0 277.5 45t181.5 131t99.5 209.5t29.5 279.5q0 246 -96.5 370t-307.5 124q-205 0 -320.5 -107.5t-115.5 -316.5q0 -315 312 -315q80 0 147.5 25.5t101.5 78.5q-14 -160 -79.5 -236.5t-217.5 -76.5q-31 0 -65.5 3t-66 7t-59.5 9 t-42 12q-29 -16 -39 -46t-10 -59zM305 469q0 86 44 127t110 41q51 0 81.5 -20.5t48 -56.5t22.5 -86.5t5 -111.5q-33 -29 -73.5 -42t-83.5 -13q-80 0 -117 40t-37 122z" />
<glyph unicode=":" horiz-adv-x="593" d="M123 178q0 -86 44 -118.5t122 -32.5q98 0 140 47.5t42 115.5t-36 108t-124 40q-96 0 -142 -44t-46 -116zM123 623q0 -86 44 -119t122 -33q98 0 140 48t42 116t-36 107.5t-124 39.5q-96 0 -142 -44t-46 -115z" />
<glyph unicode=";" horiz-adv-x="630" d="M123 623q0 -86 44 -119t122 -33q98 0 140 48t42 116t-36 107.5t-124 39.5q-96 0 -142 -44t-46 -115zM125 145q0 -18 1 -32.5t9 -30.5q94 -10 132 -39t38 -70q0 -39 -30.5 -73.5t-122.5 -75.5q-2 -10 -2 -25q0 -66 83 -65q68 0 125.5 24.5t99.5 67.5t66.5 100t24.5 125 q0 115 -59.5 183.5t-184.5 68.5q-92 0 -136 -46t-44 -112z" />
<glyph unicode="&#x3c;" horiz-adv-x="849" d="M72 414q0 -41 9 -70.5t50 -52.5l514 -299q49 4 83 31.5t34 80.5q0 29 -11.5 59t-39.5 48l-334 217l328 201q33 20 45 43.5t12 58.5q0 104 -111 115l-518 -305q-33 -18 -47 -52t-14 -75z" />
<glyph unicode="=" horiz-adv-x="913" d="M82 258q0 -27 6 -51.5t23 -42.5l573 -8q66 -2 106.5 23.5t40.5 88.5q0 29 -8 52.5t-18 37.5l-123 -4h-487q-53 0 -83 -26.5t-30 -69.5zM82 590q0 -57 29 -92l573 -11q66 -2 106.5 25t40.5 90q0 29 -8 52.5t-18 35.5l-123 -2h-487q-53 0 -83 -26.5t-30 -71.5z" />
<glyph unicode="&#x3e;" horiz-adv-x="849" d="M88 109q0 -104 111 -115l518 305q33 18 46 52t13 75t-9 70.5t-50 52.5h2l-514 299q-49 -4 -83 -32t-34 -81q0 -29 11.5 -58.5t39.5 -47.5l332 -217l-326 -201q-33 -20 -45 -44t-12 -58z" />
<glyph unicode="?" horiz-adv-x="950" d="M123 1104q0 -63 41 -103q16 2 31 3h32q193 0 285 -39t92 -99q0 -20 -12 -35q-10 -12 -39 -23t-60.5 -21.5t-62.5 -17.5t-45 -11q-104 -29 -147 -79t-43 -136q0 -82 43 -121t112 -39q16 0 35 3t35 9q6 63 17.5 101.5t36 63t69.5 41.5t119 40q53 14 100 35.5t81 52.5t53 75 t19 107q0 80 -48 144.5t-129 110.5t-185 71t-217 25q-41 0 -79 -7.5t-67.5 -25t-48 -48t-18.5 -77.5zM178 141q0 -86 44 -118.5t122 -32.5q98 0 140 48t42 116t-35.5 107.5t-123.5 39.5q-96 0 -142.5 -44t-46.5 -116z" />
<glyph unicode="@" horiz-adv-x="1613" d="M43 281q0 -164 41 -280t118 -189.5t188.5 -107.5t252.5 -34q168 0 254 47t86 113q0 25 -13.5 47.5t-29.5 32.5q-57 -27 -126 -42t-148 -15q-102 0 -180 24.5t-131.5 78.5t-80 143t-26.5 218q0 137 48 257t134 209t204 139.5t259 50.5q252 0 365.5 -103.5t113.5 -306.5 q0 -88 -20.5 -156.5t-51 -116.5t-68.5 -72.5t-71 -24.5q-16 0 -21 5t-5 13q0 14 3 33.5t7 54.5l72 467q-35 25 -65 35t-71 10q-63 0 -90 -39q-49 41 -160 41q-90 0 -166.5 -37t-132 -103.5t-87 -160.5t-31.5 -209q0 -158 62.5 -235.5t178.5 -77.5q80 0 147.5 30.5 t102.5 122.5l-1 -9t-1 -17q0 -72 43 -98.5t109 -26.5q109 0 203 45t163.5 125t109.5 187.5t40 234.5q0 121 -35 224t-111.5 180t-199.5 120t-301 43q-209 0 -372 -70.5t-276.5 -189.5t-173 -277.5t-59.5 -332.5zM662 342q0 131 54 208t146 77q47 0 84 -13l-53 -370 q-27 -35 -63.5 -49.5t-67.5 -14.5q-53 0 -76.5 35t-23.5 127z" />
<glyph unicode="A" d="M25 102q0 -63 33.5 -87.5t93.5 -24.5q29 0 47 1t47 7l104 256h359l77 -180q23 -53 63 -69.5t95 -16.5q127 0 176 30t49 91q0 16 -5 34.5t-13 32.5l-66 2l-403 918q-31 10 -55.5 14t-51.5 4q-61 0 -100 -22.5t-65 -81.5l-357 -799q-12 -29 -20 -54.5t-8 -54.5zM408 430 l120 324l119 -324h-239z" />
<glyph unicode="B" horiz-adv-x="1128" d="M18 1004q0 -23 4.5 -42.5t14.5 -37.5l106 -4v-46q0 -45 -1 -109.5t-1 -139.5v-131q0 -174 2 -282t7 -142q4 -25 22 -41.5t59 -25.5t109 -12t170 -3q127 0 231.5 21.5t178 66.5t114.5 114.5t41 165.5q0 80 -41 143.5t-133 96.5q61 31 95 92.5t34 126.5q0 141 -99.5 216 t-326.5 75h-338q-80 0 -129 -6t-74.5 -19.5t-35 -33t-9.5 -43.5zM455 180v287q27 2 63.5 3t61.5 1q111 0 154.5 -35t43.5 -98q0 -33 -9 -62.5t-31.5 -53t-61.5 -37t-98 -13.5q-35 0 -69 2t-54 6zM455 639v283q25 2 50 3t48 1q115 0 160 -42.5t45 -105.5q0 -72 -36 -107.5 t-120 -35.5q-25 0 -71 1t-76 3z" />
<glyph unicode="C" horiz-adv-x="1024" d="M49 502q0 143 41 259t121 195.5t196.5 122.5t268.5 43q92 0 152.5 -9t96.5 -27.5t50 -48t14 -68.5q0 -45 -15.5 -70t-49.5 -47q-39 20 -99.5 33.5t-119.5 13.5q-92 0 -157 -25.5t-105 -73.5t-58 -117t-18 -157t17 -148.5t49 -97t77 -53t102 -16.5q84 0 156 18.5t139 53.5 q39 -16 55.5 -50t16.5 -63q0 -86 -100.5 -135t-317.5 -49q-248 0 -380 126t-132 390z" />
<glyph unicode="D" horiz-adv-x="1206" d="M18 1004q0 -23 4.5 -42.5t14.5 -37.5l106 -4v-46q0 -45 -1 -109.5t-1 -139.5v-131q0 -174 3 -279.5t8 -140.5q8 -51 89 -68.5t269 -17.5q147 0 267 34.5t205 109.5t131 191.5t46 280.5q0 109 -29.5 201t-96 158.5t-175 104.5t-266.5 38h-326q-80 0 -128 -6t-74.5 -19.5 t-36 -33t-9.5 -43.5zM451 188v721l31 1q32 1 59 1q164 0 240.5 -83t76.5 -263q0 -207 -74.5 -295t-220.5 -88q-29 0 -61.5 2t-50.5 4z" />
<glyph unicode="E" horiz-adv-x="1042" d="M25 1004q0 -23 4 -44.5t14 -39.5l107 -5v-45q0 -43 -1.5 -107.5t-1.5 -137.5v-131q0 -174 2.5 -277.5t6.5 -138.5q4 -27 19 -42.5t58 -24.5t121 -12t207 -3q133 0 216 6t129 21.5t62.5 42t16.5 69.5q0 39 -14 67h-510v249h276q102 0 141.5 31.5t39.5 92.5q0 16 -5.5 39 t-13.5 37h-438v250h356q102 0 142 37t40 98q0 23 -8 41.5t-18 32.5l-117 -4h-625q-63 0 -103 -6t-63.5 -19.5t-31.5 -33t-8 -43.5z" />
<glyph unicode="F" horiz-adv-x="952" d="M18 1004q0 -23 4.5 -44.5t14.5 -39.5l106 -5v-45q0 -43 -1 -107.5t-1 -137.5v-131q0 -174 2 -285t7 -146q12 -73 141 -73h4q41 0 89 5t71 19v414h235q102 0 141 33t39 94q0 16 -5 38.5t-13 37.5h-397v270h315q102 0 142 37t40 98q0 23 -8 41.5t-18 32.5l-117 -4h-584 q-63 0 -103 -6t-63.5 -19.5t-32 -33t-8.5 -43.5z" />
<glyph unicode="G" horiz-adv-x="1138" d="M49 502q0 -268 132 -391t401 -123q106 0 195 11t152.5 32.5t98.5 51.5t35 67v301q0 27 -9.5 46t-34 31.5t-68.5 17.5t-111 5q-129 0 -178.5 -27.5t-49.5 -83.5q0 -23 4.5 -42t14.5 -38l137 -4v-145q-66 -16 -139 -16q-72 0 -124 15t-85 52t-48.5 99.5t-15.5 156.5 q0 92 17.5 163t59.5 119t112.5 73.5t175.5 25.5q31 0 64.5 -4t67.5 -10t63.5 -14.5t48.5 -18.5q35 23 50 47.5t15 69.5q0 80 -75.5 116.5t-258.5 36.5q-324 0 -485.5 -165.5t-161.5 -454.5z" />
<glyph unicode="H" horiz-adv-x="1292" d="M18 1004q0 -23 4.5 -42.5t14.5 -37.5l106 -4v-46q0 -45 -1 -109.5t-1 -139.5v-131q0 -174 2 -284t7 -144q6 -37 36.5 -54.5t108.5 -17.5q43 0 88 6t68 16v437h399v-293q0 -55 7 -88t29.5 -49.5t64.5 -21.5t116 -5q207 0 207 119q0 37 -14 63l-103 2v729l8 181 q-18 10 -56 18t-71 8q-39 0 -72.5 -6t-58 -24t-39 -48t-16.5 -82q-4 -51 -4 -133t-2 -174h-395l2 393q0 41 -53.5 56.5t-153.5 15.5q-129 0 -178.5 -27.5t-49.5 -82.5z" />
<glyph unicode="I" horiz-adv-x="686" d="M39 1004q0 -23 4 -42.5t14 -37.5l123 -4v-41t-1 -101.5t-1 -132.5v-127v-108q0 -57 1 -108.5t1 -86.5v-35q-66 -4 -98.5 -27.5t-32.5 -84.5q0 -16 5 -35t14 -33l366 -2q102 0 152.5 25.5t50.5 87.5q0 16 -5 37.5t-14 35.5h-126v738q76 0 115.5 24.5t39.5 91.5q0 16 -5 35 t-13 33h-445q-59 0 -102 -23.5t-43 -78.5z" />
<glyph unicode="J" horiz-adv-x="591" d="M-61 -168q0 23 4 45.5t14 38.5q84 0 126 8t52 31q4 10 8 20.5t6.5 38t3.5 78.5t1 141v687l-105 4q-10 18 -14 37.5t-4 42.5q0 55 49 82.5t178 27.5q100 0 154.5 -15.5t54.5 -56.5l2 -872q0 -127 -27.5 -214t-79 -139.5t-123 -75t-157.5 -22.5q-66 0 -104.5 28t-38.5 85z " />
<glyph unicode="K" horiz-adv-x="1163" d="M18 1004q0 -23 4.5 -42.5t14.5 -37.5l106 -4v-46q0 -45 -1 -109.5t-1 -139.5v-131q0 -174 2 -285t7 -146q6 -37 36.5 -53t108.5 -16q41 0 89 4t71 18v443l239 -342q33 -49 56.5 -75t46 -37t50 -13t71.5 -2q115 0 173 27.5t58 91.5q0 16 -5 34.5t-14 32.5h-88l-323 416 l387 362q10 27 10 58q0 45 -29.5 72.5t-85.5 27.5q-47 0 -79.5 -14.5t-67.5 -48.5l-399 -392v385q0 41 -54.5 56.5t-154.5 15.5q-129 0 -178.5 -27.5t-49.5 -82.5z" />
<glyph unicode="L" horiz-adv-x="948" d="M18 1004q0 -23 4.5 -42.5t14.5 -37.5l106 -4v-46q0 -45 -1 -109.5t-1 -139.5v-131q0 -174 2 -275.5t7 -136.5q4 -27 17 -43t53 -25.5t113 -13.5t197 -4q123 0 201 5t122 19.5t59.5 42t15.5 72.5q-1 39 -15 65h-458l2 842q0 41 -55.5 56.5t-155.5 15.5 q-129 0 -178.5 -27.5t-49.5 -82.5z" />
<glyph unicode="M" horiz-adv-x="1540" d="M18 1004q0 -23 4.5 -42.5t14.5 -37.5l106 -4q-2 -80 -4 -195t-2 -227q0 -164 2 -280t6 -157q4 -35 29 -51t100 -16q31 0 56.5 4t48.5 10v725l223 -522q18 -45 54 -58.5t89 -13.5q33 0 66 7.5t49 17.5l273 586l-1 -70q-2 -70 -2 -186q0 -174 2.5 -284t6.5 -144 q6 -37 36.5 -54.5t100.5 -17.5q41 0 88 4t72 18v889l10 152q-29 29 -81 44t-138 15q-72 0 -106 -20.5t-60 -73.5l-273 -555l-217 504q-16 39 -34.5 66.5t-47 44t-71.5 24.5t-111 8q-84 0 -139 -6t-89 -18t-47.5 -34t-13.5 -52z" />
<glyph unicode="N" horiz-adv-x="1280" d="M18 1004q0 27 11.5 48t40 34.5t80 20.5t129.5 7q43 0 73.5 -6t55 -20.5t46 -38t48.5 -60.5l416 -575v291v139q0 61 -1.5 107t-2.5 80t-1 61q23 16 46.5 20t64.5 4q55 0 85 -16.5t42 -72.5t14 -163.5t2 -288.5v-186t-1 -176t-1 -133v-51q-12 -6 -31.5 -13.5t-43 -13.5 t-48 -9t-45.5 -3q-37 0 -60.5 2t-40.5 8t-29.5 17.5t-24.5 29.5l-459 643v-676q-23 -10 -48.5 -15t-60.5 -5q-41 0 -65.5 4t-38.5 13t-19.5 22.5t-7.5 32.5q-4 41 -4 153v279q0 113 1 227.5t3 194.5l-106 4q-10 18 -14.5 37.5t-4.5 42.5z" />
<glyph unicode="O" horiz-adv-x="1220" d="M49 500q0 -145 37 -243.5t105.5 -158t168 -86t224.5 -26.5q293 0 440 160.5t147 441.5q0 260 -124.5 397t-403.5 137q-143 0 -253.5 -45t-186.5 -126t-115 -195.5t-39 -255.5zM358 526q0 172 59.5 270.5t209.5 98.5q76 0 123 -22.5t74.5 -65.5t37.5 -105.5t10 -142.5 q0 -364 -261 -364h-1q-70 0 -118 16t-77.5 55t-43 102.5t-13.5 157.5z" />
<glyph unicode="P" horiz-adv-x="1101" d="M18 1004q0 -23 4.5 -42.5t14.5 -37.5l106 -4v-46q0 -45 -1 -109.5t-1 -139.5v-131q0 -174 2 -279.5t7 -140.5q6 -35 40.5 -56.5t104.5 -21.5q61 0 111 11l49 11v392q25 -2 59.5 -4.5t77.5 -2.5q233 0 349 104.5t116 297.5q0 70 -24.5 127t-82 96t-148.5 59.5t-224 20.5 l-353 -2q-63 0 -103 -6t-63.5 -19.5t-32 -33t-8.5 -43.5zM455 594v321q25 2 56.5 3.5t68.5 1.5q111 0 151.5 -40t40.5 -112q0 -98 -45 -139t-133 -41q-47 0 -79 1t-60 5z" />
<glyph unicode="Q" horiz-adv-x="1226" d="M49 500q0 -145 37 -243.5t105.5 -159t168 -87t224.5 -26.5q47 -102 80.5 -164t67.5 -94.5t75 -43t106 -10.5q154 0 215.5 43.5t61.5 106.5q0 23 -5 44t-20 38q-35 -8 -83 -11.5t-76 -3.5q-23 0 -38.5 4.5t-31.5 18.5t-35.5 43t-48.5 76q160 63 239.5 205.5t79.5 351.5 q0 260 -124.5 397t-403.5 137q-143 0 -253.5 -45t-186.5 -126t-115 -195.5t-39 -255.5zM358 526q0 172 59.5 270.5t209.5 98.5q76 0 123 -22.5t74.5 -65.5t37.5 -105.5t10 -142.5q0 -366 -261 -366h-1q-70 0 -118 17t-77.5 56t-43 102.5t-13.5 157.5z" />
<glyph unicode="R" horiz-adv-x="1140" d="M18 1004q0 -23 4.5 -42.5t14.5 -37.5l106 -4v-46q0 -45 -1 -109.5t-1 -139.5v-131q0 -174 2 -279.5t7 -140.5q6 -35 40.5 -56.5t104.5 -21.5q61 0 111 11l49 11v424q6 0 21.5 -1t31.5 -1h33h26l181 -381q18 -39 49.5 -54t83.5 -15q139 0 194 25.5t55 93.5q0 16 -5 34.5 t-13 32.5h-82l-172 303q96 45 147.5 122t51.5 204q0 70 -25.5 127t-82 96t-147.5 59.5t-222 20.5l-355 -2q-63 0 -103 -6t-63.5 -19.5t-32 -33t-8.5 -43.5zM455 606v309q25 2 61.5 3.5t71.5 1.5q113 0 155.5 -44.5t42.5 -107.5q0 -80 -44 -123t-130 -43q-51 0 -89 1t-68 3z " />
<glyph unicode="S" horiz-adv-x="964" d="M43 164q0 -90 95 -133t313 -43q121 0 209 29.5t146 81t86 118.5t28 141q0 104 -66 171t-205 108q-88 25 -142 43t-84 34.5t-40 34t-10 39.5q0 45 48 76t152 31q33 0 71 -6t73 -17.5t64.5 -24.5t43.5 -28q96 25 97 117q0 76 -84 128t-273 52q-115 0 -204 -29.5t-150 -81 t-93 -122t-32 -150.5q0 -66 20.5 -115t57.5 -85.5t86 -61.5t106 -41q76 -23 126 -38t79 -28.5t41 -29t12 -35.5q0 -100 -194 -100q-74 0 -152 25.5t-137 62.5q-45 -16 -66.5 -52t-21.5 -71z" />
<glyph unicode="T" horiz-adv-x="997" d="M10 989q0 -20 5.5 -45t15.5 -41h299v-43q0 -41 -1 -103.5t-1 -133.5v-129q0 -174 2 -285t6 -146q12 -73 141 -73h4q41 0 89 5t71 19l2 889h162q102 0 142 35t40 96q0 23 -7 44.5t-17 35.5l-119 -4h-645q-113 0 -151 -30.5t-38 -90.5z" />
<glyph unicode="U" horiz-adv-x="1226" d="M18 1004q0 -23 4.5 -42.5t14.5 -37.5l104 -4q0 -43 -1 -102.5t-2 -126t-2 -135.5t-1 -128q0 -131 26.5 -216t86 -135t154 -69.5t227.5 -19.5q229 0 348 105.5t139 295.5q8 78 10 172t2 205q0 115 -7 183.5t-25.5 105.5t-51 49t-83.5 12q-27 0 -55.5 -6t-51.5 -18 q4 -86 5 -193.5t1 -200.5q0 -96 -1 -169.5t-5 -133.5q-4 -109 -62.5 -149.5t-140.5 -40.5q-106 0 -152 40t-46 144v43v76q0 45 1 94t1 92v78v45v39q0 33 1 66.5t1 60.5v27t-5.5 46t-27 32.5t-63.5 19.5t-115 6q-129 0 -178.5 -27.5t-49.5 -82.5z" />
<glyph unicode="V" horiz-adv-x="1177" d="M-8 995q0 -29 3 -44t9 -27l68 -2l323 -813q14 -37 27.5 -59.5t31 -35t44 -17.5t69.5 -5q41 0 93.5 6t87.5 20l350 805q27 59 40 102.5t13 84.5q0 104 -107 104q-37 0 -62.5 -4t-47.5 -14l-291 -754l-240 651q-23 61 -57.5 90t-116.5 29q-123 0 -180 -25.5t-57 -91.5z" />
<glyph unicode="W" horiz-adv-x="1777" d="M-8 995q0 -29 3 -44t9 -27l68 -2l280 -813q12 -37 25.5 -59.5t32 -36t45 -17.5t69.5 -4q41 0 91.5 5t84.5 19l209 557l135 -462q10 -37 21.5 -59.5t30 -36t47 -18.5t71.5 -5q45 0 102.5 6t92.5 20l297 805q23 61 34 102.5t11 82.5q0 47 -25.5 76.5t-78.5 29.5 q-37 0 -64 -4t-49 -14l-248 -791l-203 703q-16 53 -44.5 78.5t-106.5 25.5q-84 0 -118 -15.5t-48 -49.5l49 -162l-217 -582l-205 690q-18 61 -53 90t-111 29q-123 0 -180 -25.5t-57 -91.5z" />
<glyph unicode="X" horiz-adv-x="1130" d="M31 96q0 -53 29.5 -78.5t99.5 -25.5q33 0 82 12l258 358l180 -266q23 -35 40 -55.5t35.5 -31.5t45 -14t67.5 -3q123 0 177.5 31.5t54.5 97.5q0 12 -2 27.5t-6 27.5h-80l-275 385l209 258q61 76 77.5 119t16.5 78q0 39 -23.5 65.5t-88.5 26.5q-43 0 -92 -12l-242 -324 l-166 246q-20 31 -36.5 49t-33 28.5t-38 13.5t-52.5 3q-123 0 -180 -25.5t-57 -91.5q0 -29 3 -44t9 -27l63 -2l248 -357q-10 -12 -31.5 -39.5t-50 -62.5t-59.5 -73t-57.5 -71.5t-46 -59.5l-25.5 -34q-31 -41 -42 -70.5t-11 -58.5z" />
<glyph unicode="Y" horiz-adv-x="1073" d="M20 991q0 -29 3.5 -44t9.5 -27l63 -2l297 -455q0 -174 1 -269.5t7 -130.5q12 -73 142 -73h4q41 0 88 5t72 19v469l254 338q59 78 75.5 120t16.5 77q0 39 -23.5 65.5t-87.5 26.5q-23 0 -45.5 -2t-48.5 -10l-262 -375l-178 291q-35 57 -65 75.5t-85 18.5 q-123 0 -180.5 -25.5t-57.5 -91.5z" />
<glyph unicode="Z" horiz-adv-x="993" d="M37 117q0 -27 11 -59.5t32 -55.5q10 -2 47 -1t96 1h123t144.5 -1t138 -2t102.5 -1h41q104 0 147.5 32.5t43.5 98.5q0 20 -4.5 40.5t-14.5 37.5h-549l486 573q41 47 60.5 94.5t19.5 106.5q0 29 -9.5 67.5t-29.5 63.5h-682q-104 0 -145.5 -36t-41.5 -91q0 -31 5 -49t16 -35 h536l-504 -606q-43 -53 -56 -91t-13 -87z" />
<glyph unicode="[" horiz-adv-x="673" d="M143 393q0 -123 1 -237.5t2 -204.5t3.5 -149.5t2.5 -71.5q2 -37 12 -58.5t31.5 -34t57.5 -15.5t91 -3q76 0 126 7t79 21.5t41 37t12 51.5q0 14 -4 33.5t-10 29.5l-189 2v1293l183 4q18 29 18 82q0 51 -50 74.5t-188 23.5q-68 0 -108.5 -6t-62 -27.5t-29.5 -61.5t-10 -108 q0 -14 -2.5 -75.5t-3.5 -154.5t-2 -210t-1 -242z" />
<glyph unicode="\" horiz-adv-x="804" d="M-16 1231q16 29 49 45t73 16q90 0 123 -86l490 -1175q-20 -35 -60.5 -52.5t-72.5 -17.5q-33 0 -55.5 10.5t-34.5 38.5z" />
<glyph unicode="]" horiz-adv-x="673" d="M72 1163q0 -14 4 -33.5t10 -29.5l188 -2v-1293l-182 -4q-6 -12 -12 -33.5t-6 -48.5t11 -45t39 -30.5t73 -17.5t114 -5q68 0 109 6t63.5 27.5t30.5 61.5t10 108q0 14 1 75.5t2 154.5t2 210t1 242q0 123 -1 237.5t-2 204.5t-2 149.5t-1 71.5q-4 37 -13 58.5t-30.5 34 t-57.5 15.5t-91 3q-78 0 -128 -7t-79 -21.5t-41 -37t-12 -51.5z" />
<glyph unicode="^" horiz-adv-x="894" d="M53 705q0 -41 26.5 -67t76.5 -26q29 0 51 6l217 379l125 -313q14 -35 36.5 -53.5t69.5 -18.5q86 0 134.5 25t62.5 82l-225 502q-29 18 -73 26t-91 8q-72 0 -105.5 -24.5t-66.5 -77.5l-178 -301q-35 -59 -47.5 -88.5t-12.5 -58.5z" />
<glyph unicode="_" horiz-adv-x="684" d="M49 102q0 -27 7 -53t24 -45l418 -6q72 0 114.5 25.5t42.5 91.5q0 29 -9 54.5t-19 39.5l-129 -4h-332q-53 2 -85 -26.5t-32 -76.5z" />
<glyph unicode="`" horiz-adv-x="968" d="M217 1260q0 -35 13.5 -64t48.5 -45l395 -199q37 12 60.5 40t23.5 67q0 20 -8.5 39.5t-36.5 38.5l-377 264q-53 -16 -86 -55t-33 -86z" />
<glyph unicode="a" horiz-adv-x="1001" d="M41 221q0 -104 66.5 -168.5t207.5 -64.5q117 0 193 41t96 133v-33q0 -90 46 -115.5t132 -25.5q117 0 170.5 30t53.5 93q0 18 -6.5 42.5t-22.5 36.5q-16 -2 -29 -2h-22q-36 0 -46 16q-9 13 -8 52v16l5 303v9q0 62 -25 112q-27 52 -76 87.5t-117.5 53t-154.5 17.5 q-109 0 -187.5 -15.5t-132 -42t-79 -59t-25.5 -67.5q0 -47 26.5 -82t94.5 -39q43 43 111.5 72.5t133.5 29.5q78 -1 109 -21q29 -19 29 -72v-7v-80q-43 4 -84 7t-84 3q-193 0 -284 -65.5t-91 -194.5zM326 244q0 53 30.5 75.5t100.5 22.5q41 0 64.5 -2t58.5 -8v-105 q-31 -31 -69 -47t-97 -16q-39 0 -63.5 19.5t-24.5 60.5z" />
<glyph unicode="b" horiz-adv-x="1028" d="M92 285q0 -66 2 -109t4 -67q2 -31 24.5 -53.5t71 -38t125 -23.5t191.5 -8q102 0 191.5 28.5t154 87t101 145.5t36.5 204q0 207 -84 304t-254 97q-102 0 -165.5 -37t-96.5 -98v512q-27 10 -68.5 15t-74.5 5q-68 0 -108 -25.5t-44 -74.5q0 -23 -1 -59.5t-2 -94t-2 -140.5 t-1 -200v-215v-155zM393 193v376q27 39 61.5 61.5t88.5 22.5q98 0 132 -55t34 -172q0 -129 -43 -186.5t-146 -57.5q-41 0 -68.5 2t-58.5 9z" />
<glyph unicode="c" horiz-adv-x="854" d="M41 383q0 115 36 203t103.5 147.5t161.5 90t211 30.5q137 0 199.5 -37t62.5 -96q0 -41 -17 -72t-50 -47q-49 20 -101.5 29.5t-101.5 9.5q-104 0 -150.5 -49t-46.5 -172q0 -127 42 -174t142 -47q113 0 224 51q33 -10 49 -43t16 -62q0 -86 -96 -121.5t-262 -35.5 q-217 0 -319.5 95t-102.5 300z" />
<glyph unicode="d" horiz-adv-x="1064" d="M41 379q0 -109 22.5 -183.5t66.5 -120.5t110.5 -66.5t154.5 -20.5q104 0 178 48t101 146l-17 -164q55 -28 171 -28h8q121 0 174 26.5t53 92.5q0 16 -5 36.5t-14 34.5l-96 2v1047q-27 10 -69.5 15t-75.5 5q-68 0 -108 -25.5t-44 -74.5q0 -23 -1 -29t-2 -26.5t-2 -72.5 t-1 -169q-35 4 -59 4h-54q-109 0 -199.5 -29.5t-155 -90t-100.5 -149.5t-36 -208zM340 412q0 133 53 195.5t139 62.5q39 0 61.5 -2t51.5 -6v-418q-29 -31 -67.5 -46.5t-75.5 -15.5q-88 0 -125 50.5t-37 179.5z" />
<glyph unicode="e" horiz-adv-x="946" d="M41 383q0 -211 107.5 -303t314.5 -92q197 0 311.5 42t114.5 128q0 29 -15.5 58.5t-48.5 39.5q-66 -33 -147.5 -49.5t-145.5 -16.5q-57 0 -93 13.5t-55 37t-26.5 57.5t-7.5 75h471q18 0 33.5 8t27 29.5t18.5 57.5t7 93q0 135 -97 215t-265 80q-117 0 -211 -34t-158.5 -95 t-99.5 -149.5t-35 -194.5zM356 510q10 80 48 116t108 36q66 0 83 -34t17 -87q0 -21 -2 -31h-254z" />
<glyph unicode="f" horiz-adv-x="634" d="M27 739q0 -23 6 -48t16 -42l86 -4v-31t-1 -80t-1 -110v-125q0 -68 1 -122t3 -101q4 -49 41 -67.5t105 -18.5q45 0 80.5 5t62.5 19v633q18 -2 33 -2h30q63 0 97.5 34t34.5 89q0 18 -6.5 42t-12.5 34h-180q0 90 4 129t12 55t28.5 26.5t72.5 10.5q18 0 53 -1t49 -5 q12 14 21.5 41.5t9.5 50.5v5q0 50 -35 80q-37 32 -133 32q-92 0 -160 -20.5t-113 -69t-66.5 -129t-21.5 -201.5q-70 -4 -93 -30.5t-23 -78.5z" />
<glyph unicode="g" horiz-adv-x="999" d="M18 -215q0 -123 102.5 -169t321.5 -46q133 0 229.5 26.5t160 71.5t93 103.5t29.5 124.5q0 72 -38.5 122t-137.5 66q-59 10 -109.5 15t-121.5 10q-70 4 -111 6t-62.5 5t-28.5 8t-7 13q0 20 24 39q10 -2 28 -3l36 -2t35 -1h28q213 0 323 80.5t110 234.5q0 53 -30 96.5 t-81 61.5q10 -4 20 -4h23q123 0 123 107q0 23 -6 45t-21 45l-217 -2q-41 10 -99.5 15t-105.5 5q-229 0 -352 -105.5t-123 -281.5q0 -211 191 -264q-86 -8 -122 -49t-36 -82q0 -35 14.5 -72t79.5 -59q-78 -10 -120 -52.5t-42 -107.5zM262 -166q0 47 27 80q66 -10 139.5 -17.5 t138.5 -11.5q45 -4 72 -8t41 -10t17 -14.5t3 -18.5q0 -37 -57 -67.5t-192 -30.5q-104 0 -146.5 26.5t-42.5 71.5zM346 492q0 78 37 129t125 51q80 0 108.5 -43t28.5 -113q0 -90 -35 -136t-121 -46q-74 0 -108.5 36t-34.5 122z" />
<glyph unicode="h" horiz-adv-x="1089" d="M96 348q0 -131 4 -274q2 -47 41 -65.5t111 -18.5q41 0 81 4t66 18v549q27 41 62 66.5t88 25.5q78 0 99.5 -33t21.5 -94q0 -23 -1 -74t-1 -110q0 -57 -1 -109.5t-1 -76.5q0 -53 6 -85t27.5 -50.5t62.5 -24.5t108 -6q205 0 205 119q0 16 -4 35.5t-12 33.5l-98 2 q2 41 3 98.5t2 117t1 110.5v80q0 150 -73 208t-214 58q-121 0 -184.5 -39t-98.5 -100v516q-27 10 -68.5 15t-74.5 5q-145 0 -152 -100q0 -23 -1 -62.5t-2 -102t-2 -149.5t-1 -204v-283z" />
<glyph unicode="i" horiz-adv-x="557" d="M6 737q0 -23 4 -44t15 -38l114 -4l-1 -71q-1 -72 -1 -199q0 -117 1 -188.5t3 -118.5q4 -49 44 -66.5t108 -17.5q45 0 83 4t64 18v758q0 39 -45 59.5t-151 20.5q-129 0 -183.5 -27.5t-54.5 -85.5zM135 1102q0 -72 37 -102.5t113 -30.5q92 0 128 42t36 101q0 55 -33 95 t-113 40q-84 0 -126 -41t-42 -104z" />
<glyph unicode="j" horiz-adv-x="557" d="M-28.5 -357.5q34.5 -33.5 114.5 -33.5q86 0 151.5 20.5t110.5 67.5t68.5 124t23.5 191v758q0 39 -45 59.5t-151 20.5q-129 0 -183.5 -27.5t-54.5 -85.5q0 -23 4 -44t15 -38l112 -4v-28q0 -27 -1 -75t-1 -114v-135v-240t-2 -134t-4 -60.5t-6 -20.5q-8 -10 -16.5 -15 t-23.5 -9t-44 -5t-80 -1q-22 -32 -22 -88q0 -50 34.5 -83.5zM135 1102q0 -72 37 -102.5t113 -30.5q92 0 128 42t36 101q0 55 -33 95t-113 40q-84 0 -126 -41t-42 -104z" />
<glyph unicode="k" horiz-adv-x="1005" d="M96 348q0 -131 4 -274q2 -47 41 -65.5t111 -18.5q41 0 80 5t65 19v373l226 -332q12 -18 25.5 -31.5t32.5 -21.5t46 -11t68 -3q111 0 151.5 28.5t40.5 92.5q0 16 -5 34.5t-13 32.5h-76l-211 291l262 246q6 31 6 53q0 35 -28.5 60.5t-79.5 25.5q-45 0 -82 -12.5t-72 -46.5 l-291 -293v727q-27 10 -68.5 16t-74.5 6q-145 0 -152 -100q0 -23 -1 -62.5t-2 -102t-2 -149.5t-1 -204v-283z" />
<glyph unicode="l" horiz-adv-x="532" d="M96 358q0 -63 1 -127.5t3 -136.5q2 -61 39 -82.5t135 -21.5q137 0 190.5 28.5t53.5 92.5q0 16 -3 34.5t-11 32.5l-103 2v1047q-27 10 -70.5 16t-76.5 6q-145 0 -152 -100q0 -23 -1 -62.5t-2 -102t-2 -149.5t-1 -204v-144v-129z" />
<glyph unicode="m" horiz-adv-x="1658" d="M6 737q0 -23 4 -44t15 -38l104 -4v-33q0 -31 -1 -81t-1 -113v-125q0 -68 1 -123t3 -102q4 -43 39 -63.5t113 -20.5q41 0 80.5 4t66.5 18v555q23 41 54.5 63.5t82.5 22.5q41 0 63.5 -8t34 -23.5t14.5 -39t3 -54.5v-229q0 -68 1 -123t3 -102q4 -43 39 -63.5t113 -20.5 q41 0 80.5 4t66.5 18v555q23 41 55.5 63.5t83.5 22.5q74 0 94.5 -32t20.5 -93q0 -23 -1 -74t-1 -110q0 -57 -1 -110.5t-1 -77.5q0 -53 6 -85t27.5 -50.5t62.5 -24.5t109 -6q205 0 205 119q0 16 -4.5 35.5t-12.5 33.5l-98 2q2 41 3 98.5t2 117t1 110.5v80q0 150 -73.5 208 t-215.5 58q-96 0 -167.5 -33t-110.5 -102q-31 72 -94.5 103.5t-167.5 31.5q-117 0 -192 -45t-109 -150l22 164q-33 14 -91 21.5t-120 7.5q-63 0 -104 -7t-64.5 -20.5t-33 -35t-9.5 -50.5z" />
<glyph unicode="n" horiz-adv-x="1118" d="M6 737q0 29 9.5 50.5t33 35t64.5 20.5t104 7q61 0 119.5 -7t91.5 -22l-22 -164q29 106 111.5 150.5t191.5 44.5q141 0 213.5 -58.5t72.5 -207.5v-80t-1 -110.5t-2 -117t-3 -98.5l98 -2q8 -14 12.5 -33.5t4.5 -35.5q0 -119 -205 -119q-68 0 -108.5 6t-62 24.5t-28 50 t-6.5 85.5q0 25 1 78t1 110q0 59 1 110.5t1 73.5q0 74 -26 99.5t-92 25.5q-51 0 -86 -21.5t-64 -64.5v-555q-27 -14 -66.5 -18t-80.5 -4q-78 0 -113 20.5t-39 63.5q-2 47 -3 102t-1 123v125q0 63 1 113.5t1 80.5v33l-104 4q-10 16 -14.5 38t-4.5 44z" />
<glyph unicode="o" horiz-adv-x="999" d="M41 387q0 -213 110.5 -307t317.5 -94q104 0 193.5 28.5t155 86t103 144.5t37.5 206q0 213 -107.5 309t-315.5 96q-111 0 -202 -31.5t-155.5 -91t-100.5 -147.5t-36 -199zM344 406q0 133 38 192t132 59q92 0 120 -58t28 -173q0 -139 -41 -195.5t-121 -56.5q-47 0 -77 10.5 t-47.5 37t-24.5 71.5t-7 113z" />
<glyph unicode="p" horiz-adv-x="1069" d="M6 737q0 -23 4 -44t15 -38l104 -4v-43t-1 -111.5t-1 -156.5v-178q0 -190 1 -318.5t3 -175.5q6 -84 152 -84q43 0 84 6.5t63 16.5v395q23 -6 56.5 -11t78.5 -5q104 0 190.5 29.5t148 88t96 145.5t34.5 202q0 215 -84 308t-256 93q-109 0 -184.5 -47t-103.5 -148l22 164 q-33 14 -90 21.5t-119 7.5q-121 0 -167 -27.5t-46 -85.5zM430 184v381q29 43 63.5 64.5t86.5 21.5q94 0 127.5 -58t33.5 -175q0 -125 -42 -186.5t-142 -61.5q-43 0 -68.5 3t-58.5 11z" />
<glyph unicode="q" horiz-adv-x="1028" d="M41 379q0 -211 87 -301t271 -90q84 0 148.5 24.5t101.5 83.5v-250q0 -53 1 -103t1 -75q4 -45 39 -64.5t111 -19.5q43 0 84 6.5t63 16.5v1091q0 33 -14 61.5t-54 50t-113 34t-189 12.5q-252 0 -394.5 -119t-142.5 -358zM342 406q0 133 53.5 192t141.5 59q39 0 62.5 -3 t49.5 -9v-409q-29 -31 -67.5 -44.5t-75.5 -13.5q-90 0 -127 49t-37 179z" />
<glyph unicode="r" horiz-adv-x="770" d="M6 737q0 57 49 85t178 28q127 0 195 -29l-31 -221q25 76 47.5 125t50 76.5t63.5 38t87 10.5q70 0 97.5 -37t27.5 -84q0 -45 -11.5 -73t-27.5 -48q-23 2 -39 3t-33 1q-49 0 -79.5 -8t-55 -28.5t-46 -57.5t-48.5 -92v-416q-27 -14 -71 -17t-76 -3q-74 0 -111 18.5t-41 65.5 q-2 47 -3 102t-1 123v125q0 63 1 112.5t1 79.5v31l-104 4q-10 16 -14.5 40t-4.5 46z" />
<glyph unicode="s" horiz-adv-x="835" d="M37 152q0 -47 26.5 -79t73.5 -50.5t111.5 -26.5t142.5 -8q106 0 181 22.5t122 61.5t69.5 91t22.5 113q0 51 -15 91.5t-52 69t-96.5 48t-147.5 31.5q-86 10 -109.5 22.5t-23.5 41.5q0 25 27.5 41t95.5 16q63 0 130 -13.5t118 -43.5q47 16 64.5 51t17.5 69q0 70 -78 112 t-240 42q-100 0 -177 -24.5t-129 -65.5t-78.5 -96.5t-26.5 -116.5q0 -109 66.5 -167t211.5 -79q55 -6 87 -12t48.5 -14.5t20.5 -17.5t4 -23q0 -20 -21.5 -35t-97.5 -15q-31 0 -68.5 6.5t-74.5 17.5t-71 24.5t-54 29.5q-43 -16 -61.5 -46t-18.5 -68z" />
<glyph unicode="t" horiz-adv-x="724" d="M12 739q0 51 31 77t100 30l-4 112v6q0 64 42 90q44 28 100 27q92 0 155 -28l-8 -211h244q6 -10 12 -35t6 -43q0 -51 -29.5 -87t-97.5 -36h-69q-41 0 -66 2v-336q0 -66 21.5 -89t85.5 -23q29 0 63.5 4t85.5 18q35 -31 35 -88q0 -74 -68.5 -107.5t-222.5 -33.5 q-68 0 -123 10t-94 36.5t-59.5 73t-20.5 117.5q0 63 1 137t1 138q0 63 1 105l1 42l-104 4q-10 16 -14.5 41t-4.5 47z" />
<glyph unicode="u" horiz-adv-x="1107" d="M14 731q0 61 41 90t146 29q68 0 110.5 -6t68.5 -24.5t36 -51.5t10 -84q0 -25 -1 -78t-2 -111.5t-2 -109.5t-1 -74q0 -61 19.5 -92t88.5 -31q53 0 90 25t60 57v271v121q0 53 4 100q2 90 154 90q31 0 74.5 -6.5t70.5 -18.5l-2 -639l104 -4q10 -16 14.5 -37.5t4.5 -44.5 q0 -29 -9.5 -50t-33 -34.5t-64.5 -20.5t-104 -7q-61 0 -117.5 7t-87.5 21l23 164q-33 -113 -109 -153.5t-186 -40.5q-141 0 -216 58t-75 208q0 29 1 80t2 108.5t2 114.5t1 98l-96 2q-8 14 -13.5 36t-5.5 38z" />
<glyph unicode="v" horiz-adv-x="948" d="M6 737q0 -23 4 -44t15 -38l55 -4l203 -547q12 -33 25.5 -55t35 -35.5t54 -18.5t81.5 -5q45 0 90 7t72 21q35 72 74 154t86 184q45 98 70.5 160t39 100.5t16.5 65.5t3 55q0 51 -30 81t-93 30q-20 0 -41 -2t-39 -8l-211 -557l-151 477q-10 29 -20.5 46t-29 27.5t-47 14.5 t-75.5 4q-98 0 -142.5 -26.5t-44.5 -86.5z" />
<glyph unicode="w" horiz-adv-x="1458" d="M6 737q0 -23 4 -44t15 -38l55 -4l194 -547q12 -33 26.5 -55t36 -35.5t55.5 -18.5t83 -5t71.5 5t57.5 15l144 443l88 -340q8 -35 18 -57.5t29.5 -38t51.5 -21.5t81 -6q45 0 92 8t74 20q35 72 70.5 153t76.5 185q35 90 57.5 150.5t35 101.5t15.5 71t3 58q0 51 -30 81 t-93 30q-20 0 -41 -2t-39 -8l-184 -557l-123 477q-8 29 -19.5 47t-31 28.5t-50 13.5t-77.5 3q-29 -2 -54 -10l-24 -9l-174 -550l-144 477q-8 29 -18 46t-26.5 27.5t-45 14.5t-73.5 4q-111 0 -149 -33t-38 -80z" />
<glyph unicode="x" horiz-adv-x="919" d="M29 737q0 59 50 86t169 27q78 0 106.5 -16.5t51.5 -53.5l106 -172l172 228q20 10 37.5 12t38.5 2q49 0 80.5 -31t31.5 -74q0 -45 -21.5 -81.5t-59.5 -88.5l-134 -174l146 -217l69 -2q8 -14 13.5 -35.5t5.5 -37.5q0 -61 -46.5 -90t-150.5 -29q-39 0 -63.5 2t-41 7 t-26.5 15.5t-20 26.5l-137 211l-168 -252q-18 -4 -45 -6t-43 -2q-59 0 -87 30.5t-28 83.5q0 29 18.5 60t52.5 76l152 204l-141 205l-70 4q-10 16 -14 38t-4 44z" />
<glyph unicode="y" horiz-adv-x="960" d="M-2 -279q0 -45 35 -78.5t114 -33.5q80 0 137.5 12t104.5 44t89 88.5t91 144.5q20 35 50 91t63 119.5t64.5 128t56.5 115.5q45 98 72.5 162t43 106t19.5 70.5t4 57.5q0 100 -108 100q-23 0 -48.5 -3t-44.5 -11l-221 -553l-155 477q-10 29 -20.5 46t-29 27.5t-47 14.5 t-75.5 4q-98 0 -142.5 -26.5t-44.5 -86.5q0 -23 4 -44t15 -38l55 -4l194 -547q20 -53 44 -78.5t65 -29.5q-39 -66 -65.5 -102.5t-60.5 -54t-86 -21.5t-144 -4q-16 -16 -22.5 -43t-6.5 -50z" />
<glyph unicode="z" horiz-adv-x="919" d="M45 106q0 -25 9 -54t28 -52h70q74 0 169 -1t180 -2t142 -2l57 -1q94 0 136.5 36t42.5 93q0 18 -6.5 38.5t-12.5 33.5h-420l361 413q39 43 52 74t13 66q0 23 -8 51t-20 45h-615q-86 0 -120.5 -32t-34.5 -79q0 -63 26 -94h379l-375 -414q-29 -35 -41 -59.5t-12 -59.5z" />
<glyph unicode="{" horiz-adv-x="823" d="M31 444q0 -70 37 -112h49q78 0 114.5 -28t36.5 -111q0 -39 -2 -67t-5 -57.5t-5 -65.5t-2 -91q0 -160 82 -226.5t215 -66.5q174 0 174 107q0 16 -3 36.5t-13 36.5q-66 2 -105 9.5t-59.5 28t-26.5 55t-6 92.5q0 33 2 63.5t5 61t5 65.5t2 76q0 31 -8 62.5t-26.5 59t-47 48.5 t-69.5 29q84 20 119.5 77.5t35.5 137.5q0 70 -12 130t-12 136q0 43 8 74.5t32.5 53t70 32t118.5 10.5q10 14 13.5 31.5t3.5 33.5q0 57 -44 85t-126 28t-144.5 -23.5t-104.5 -65.5t-63.5 -99.5t-21.5 -124.5q0 -72 15.5 -152t15.5 -137q0 -70 -40 -99.5t-128 -41.5 q-37 -4 -58.5 -19.5t-21.5 -71.5z" />
<glyph unicode="|" horiz-adv-x="518" d="M143 987l2 -1390q18 -8 48 -15.5t65 -7.5q109 0 115 88q2 37 2 88v148v1390q-18 8 -48 15.5t-65 7.5q-111 0 -115 -88q-2 -37 -3 -88.5t-1 -147.5z" />
<glyph unicode="}" horiz-adv-x="823" d="M72 -268q0 -57 44 -85t128 -28q82 0 144.5 23.5t104.5 65.5t63.5 99.5t21.5 124.5q0 72 -15.5 152t-15.5 137q0 70 39 99.5t127 41.5q37 4 58.5 19.5t21.5 71.5q0 33 -8.5 61.5t-28.5 50.5h-47q-80 0 -116 28t-36 112q0 39 2 66.5t4 56t4 65.5t2 92q0 160 -81.5 226.5 t-215.5 66.5q-174 0 -174 -107q0 -16 4 -36.5t13 -36.5q66 -2 104.5 -9.5t59 -28t26.5 -55t6 -92.5q0 -68 -6 -126t-6 -140q0 -31 8 -62.5t26.5 -59t47.5 -48t70 -28.5q-86 -20 -122 -78t-36 -138q0 -70 12 -130t12 -136q0 -43 -8 -74.5t-31.5 -53t-68.5 -32t-119 -10.5 q-18 -29 -18 -65z" />
<glyph unicode="~" horiz-adv-x="935" d="M82 393q0 -59 30.5 -93t108.5 -30q31 59 51.5 79t65.5 18l270 -2q117 0 180.5 48t63.5 134q0 25 -7 47t-24.5 38.5t-45 25t-66.5 4.5q-29 -53 -50.5 -71t-62.5 -16l-274 3q-121 2 -180.5 -48.5t-59.5 -136.5z" />
<glyph unicode="&#xa1;" horiz-adv-x="589" d="M106 -428q35 -20 74 -30.5t96 -10.5q104 0 141.5 47t33.5 162l-25 606q-23 14 -56.5 23.5t-70.5 9.5q-86 0 -119 -26.5t-37 -80.5zM117 664q0 -86 44 -119t122 -33q100 0 142 48t42 116t-37 107.5t-125 39.5q-96 0 -142 -44t-46 -115z" />
<glyph unicode="&#xa2;" horiz-adv-x="849" d="M37 383q0 -188 88 -284.5t270 -108.5l-2 -207q18 -10 45 -14.5t56 -4.5q51 0 78.5 20t27.5 71v141q102 12 157.5 48t55.5 101q0 29 -16.5 62t-48.5 43q-111 -51 -224 -51q-55 0 -92 11t-58.5 36.5t-30.5 67.5t-9 106q0 125 46 173t157 48q49 0 101 -9t101 -30 q33 16 50.5 47t17.5 72q0 49 -46 85t-145 46v215q-12 6 -38.5 11t-57.5 5q-66 0 -94.5 -24.5t-28.5 -83.5v-135q-168 -35 -264 -153t-96 -304z" />
<glyph unicode="&#xa3;" horiz-adv-x="892" d="M29 100q0 -20 6 -48.5t20 -51.5q14 2 37 2h53h109t151.5 -1t156.5 -2t122 -1h51q70 0 99.5 31t29.5 80q0 18 -3 38.5t-13 32.5h-442q49 27 68.5 64t19.5 96q0 37 -7 74q41 -4 76 -4h64q61 0 92 30.5t31 75.5q0 57 -21 84h-262q-2 10 -5 30.5t-5 45t-4 48.5t-2 38 q0 37 5 59.5t22.5 36.5t48 19.5t81.5 5.5q8 0 28.5 -2t43 -4.5t41 -4.5t24.5 -2q6 10 11.5 34t5.5 57q0 55 -57.5 85.5t-174.5 30.5q-76 0 -144.5 -17.5t-119.5 -53t-81.5 -91t-30.5 -129.5q0 -51 4 -94t14 -100q-66 -4 -94.5 -28.5t-28.5 -71.5q0 -20 5 -41t18 -37h121 q0 -10 2 -26.5t2 -39.5q0 -84 -27 -119.5t-96 -56.5q-27 -8 -36 -23.5t-9 -48.5z" />
<glyph unicode="&#xa4;" horiz-adv-x="944" d="M20 410q0 -25 5.5 -47.5t21.5 -40.5h66q16 -172 117.5 -253t297.5 -81q166 0 262.5 35.5t96.5 121.5q0 29 -13.5 57.5t-46.5 41.5q-57 -27 -116.5 -39t-112.5 -12q-86 0 -131 28.5t-59 93.5l180 -2q63 -2 102 23t39 84q0 27 -7 49.5t-17 34.5l-117 -2h-182 q14 78 64 111.5t140 33.5q49 0 104.5 -9t104.5 -30q33 16 47.5 47t14.5 66q0 59 -62.5 96t-200.5 37q-201 0 -330.5 -92t-164.5 -260q-47 -2 -75 -26.5t-28 -65.5z" />
<glyph unicode="&#xa5;" horiz-adv-x="1095" d="M72 993q0 -29 3 -44t9 -27l63 -2l146 -218h-100q-47 0 -73 -23.5t-26 -64.5q0 -51 25 -82l276 -4v-112h-202q-47 0 -73 -23.5t-26 -64.5q0 -23 5 -44.5t20 -37.5l276 -2q0 -86 2 -127t6 -54q12 -74 144 -73q41 0 89 5t73 19v226l182 -2q59 0 96 22.5t37 77.5 q0 25 -7 47.5t-18 32.5l-108 -2h-182v110l182 -2q59 0 96 22.5t37 78.5q0 25 -7 46t-18 34l-108 -5h-82l92 119q59 78 76.5 120t17.5 77q0 39 -24.5 65.5t-87.5 26.5q-49 0 -78 -10l-215 -307l-137 225q-35 55 -61.5 74.5t-82.5 19.5q-123 0 -180 -25.5t-57 -91.5z" />
<glyph unicode="&#xa6;" horiz-adv-x="589" d="M174 207l10 -639q23 -12 51.5 -18.5t59.5 -6.5q51 0 83 29t32 86v549l4 137q-35 23 -107 23t-103.5 -44t-29.5 -116zM174 1178l10 -641q23 -12 51.5 -18.5t59.5 -6.5q51 0 83 29.5t32 85.5v549l4 137q-37 25 -107 24q-72 0 -103.5 -45t-29.5 -114z" />
<glyph unicode="&#xa7;" horiz-adv-x="888" d="M94 -121q0 -66 64.5 -103.5t210.5 -37.5q109 0 188.5 26.5t131.5 75.5t77 115.5t25 146.5q0 76 -19.5 151t-77.5 179q-43 78 -68.5 133.5t-40 97.5t-19.5 73.5t-5 62.5v30q-10 4 -26.5 8.5t-32.5 4.5q-92 0 -92 -97q0 -31 4 -61.5t16 -70.5t33.5 -89t56.5 -116 q53 -104 74.5 -169t21.5 -130q0 -178 -237 -179q-63 0 -120.5 15.5t-92.5 36.5q-72 -27 -72 -103zM96 756q0 -39 5 -76t16.5 -76t30 -83t47.5 -95q43 -78 68.5 -133t39.5 -97t19.5 -74t5.5 -63q0 -20 -2 -30q10 -4 26.5 -8.5t32.5 -4.5q94 0 94 97q0 31 -4 61.5t-16.5 70.5 t-34 89t-55.5 117q-55 104 -76 168.5t-21 130.5q0 178 238 178q63 0 119.5 -15.5t91.5 -35.5q72 27 72 102q0 66 -64.5 103.5t-210.5 37.5q-109 0 -188.5 -26.5t-132 -75.5t-77 -115.5t-24.5 -146.5z" />
<glyph unicode="&#xa8;" horiz-adv-x="1126" d="M199 1102q0 -66 34.5 -95.5t106.5 -29.5q86 0 120 40t34 95q0 53 -31 89t-107 36q-78 0 -117.5 -38t-39.5 -97zM633 1102q0 -66 34.5 -95.5t106.5 -29.5q86 0 120 40t34 95q0 53 -31 89t-106 36q-78 0 -118 -38t-40 -97z" />
<glyph unicode="&#xa9;" horiz-adv-x="1355" d="M84 371q0 -246 133 -369t430 -123q147 0 264 32t197 99.5t122 173.5t42 256q0 264 -130 387t-429 123q-168 0 -287 -42t-194.5 -117.5t-111.5 -182t-36 -237.5zM209 379q0 104 27.5 190t87 148.5t153.5 96.5t230 34q238 0 338 -100.5t100 -313.5q0 -242 -127 -348 t-365 -106t-341 100t-103 299zM354 379q0 -156 77 -229.5t231 -73.5q117 0 188.5 29.5t71.5 91.5q0 20 -8.5 43.5t-36.5 35.5q-41 -23 -90.5 -30.5t-90.5 -7.5q-59 0 -91 31.5t-32 123.5q0 96 37 142.5t127 46.5q31 0 71 -8.5t66 -20.5q29 16 41.5 35.5t12.5 48.5 q0 59 -52.5 81.5t-152.5 22.5q-178 0 -273.5 -94t-95.5 -268z" />
<glyph unicode="&#xaa;" horiz-adv-x="860" d="M66 676q0 -86 52 -136.5t161 -50.5q86 0 139 38t80 104q-2 -6 -2 -19v-22q0 -31 14 -50.5t35.5 -30.5t48.5 -15.5t51 -4.5q100 0 149.5 37t49.5 88q0 59 -37 82q-31 -6 -45 -6q-16 0 -28.5 9.5t-12.5 37.5l6 205q2 66 -21.5 111t-64.5 73.5t-99.5 41t-127.5 12.5 q-166 0 -246 -49.5t-80 -116.5q0 -78 92 -96q78 78 201 77q92 0 92 -59v-70q-25 4 -56.5 7.5t-64.5 3.5q-154 0 -220 -52.5t-66 -148.5zM297 707q0 35 22.5 52t75.5 17q41 0 78 -6l-2 -84q-23 -23 -51.5 -32t-61.5 -9q-35 0 -48 16.5t-13 45.5z" />
<glyph unicode="&#xab;" horiz-adv-x="1069" d="M127 422q0 -33 12.5 -58.5t34.5 -52.5l266 -307q45 0 80 24.5t35 75.5q0 45 -41 103l-154 219l156 219q23 29 31 49.5t8 48.5q0 39 -26.5 68t-79.5 31l-279 -318q-43 -47 -43 -102zM563 408q0 -31 11.5 -56.5t31.5 -48.5l230 -272q45 0 78.5 23.5t33.5 76.5q0 43 -35 96 l-127 185l129 182q16 29 25.5 47t9.5 47q0 39 -27.5 66.5t-80.5 29.5l-240 -278q-39 -45 -39 -98z" />
<glyph unicode="&#xac;" horiz-adv-x="923" d="M82 426q0 -27 6 -51.5t23 -42.5l493 -8l2 -308q23 -14 52.5 -20t60.5 -6q51 0 81.5 31t30.5 90v338q0 29 -8 46t-18 31l-123 -4h-487q-53 0 -83 -26.5t-30 -69.5z" />
<glyph unicode="&#xad;" horiz-adv-x="913" d="M82 426q0 -27 6 -51.5t23 -42.5l573 -8q66 -2 106.5 23.5t40.5 88.5q0 29 -8 52.5t-18 37.5l-123 -4h-487q-53 0 -83 -26.5t-30 -69.5z" />
<glyph unicode="&#xae;" horiz-adv-x="1056" d="M92 850q0 -182 97.5 -272.5t316.5 -90.5q217 0 338 96.5t121 317.5q0 193 -95.5 283t-314.5 90q-123 0 -211 -31t-144.5 -86t-82 -134t-25.5 -173zM193 856q0 76 19 137.5t62 105.5t111 68.5t164 24.5q174 0 244.5 -70.5t70.5 -224.5q0 -174 -90 -251t-264 -77 q-172 0 -244.5 72t-72.5 215zM317 1042q0 -14 11 -32h37q0 -10 -1.5 -27.5t-1.5 -40.5v-43v-41v-100t5 -51q6 -35 59 -35q14 0 31.5 2t31.5 6v154l29 -3l64 -131q14 -31 55 -30q47 0 71.5 10t24.5 41q0 10 -10 27h-29l-57 102q35 16 53.5 44t18.5 77q0 55 -42 85.5 t-139 30.5l-129 -2q-45 0 -63.5 -10t-18.5 -33zM489 901v107q10 0 20.5 1t20.5 1q39 0 51.5 -17t12.5 -35q0 -57 -55 -57h-50z" />
<glyph unicode="&#xaf;" horiz-adv-x="954" d="M154 1110q0 -29 7 -55.5t23 -46.5l447 -11q74 -2 120 26.5t46 98.5q0 31 -10.5 57.5t-20.5 43.5l-137 -4h-353q-57 0 -89.5 -30t-32.5 -79z" />
<glyph unicode="&#xb0;" horiz-adv-x="819" d="M102 1079q0 -129 91 -217q90 -90 217 -90t217 90t90 217t-90 217t-217 90t-217 -90q-90 -88 -91 -217zM186 1079q0 94 66 158q63 66 158 66q94 0 157 -66q66 -66 66 -158t-66 -157q-66 -66 -157 -66q-92 0 -158 66q-66 63 -66 157z" />
<glyph unicode="&#xb1;" horiz-adv-x="1124" d="M37 0h1050v98h-1050v-98zM37 694h477v-475h98v475h475v97h-475v479h-98v-479h-477v-97z" />
<glyph unicode="&#xb2;" horiz-adv-x="849" d="M88 594q0 -49 29 -96h100q49 0 123 -1t141 -1q70 0 119 -1l49 -1q66 0 95.5 29.5t29.5 80.5q0 18 -3 30.5t-13 29.5h-305q121 41 189.5 115.5t68.5 166.5q0 117 -69 175.5t-226 58.5q-145 0 -219 -44t-74 -104q0 -88 82 -108q35 31 78 44t77 13q88 0 89 -72 q0 -29 -10.5 -50t-44.5 -47t-95 -58.5t-162 -79.5q-49 -20 -49 -80z" />
<glyph unicode="&#xb3;" horiz-adv-x="776" d="M59 426q0 -51 52.5 -85t175.5 -34q217 0 311 77t94 208q0 59 -38 115.5t-115 68.5q68 23 103.5 70t35.5 106q0 227 -291 228q-150 0 -223.5 -44t-73.5 -104q0 -88 82 -108q35 31 78 44t78 13q47 0 66.5 -19.5t19.5 -50.5q0 -39 -31 -61.5t-129 -32.5q-20 -2 -28.5 -21.5 t-8.5 -47.5q0 -27 7 -51.5t30 -45.5q16 4 40.5 5t35.5 1q90 0 90 -69q0 -51 -31 -73.5t-131 -22.5q-45 0 -93 6t-73 14q-18 -18 -25.5 -40.5t-7.5 -45.5z" />
<glyph unicode="&#xb4;" horiz-adv-x="968" d="M225 1059q0 -39 23.5 -66.5t60.5 -40.5l396 199q35 16 48 45t13 64q0 47 -33 85.5t-86 55.5l-377 -264q-29 -18 -37 -38t-8 -40z" />
<glyph unicode="&#xb5;" horiz-adv-x="1179" d="M125 -319q0 -57 31 -95q23 -29 57 -28q37 0 63 32q27 29 27 86q0 29 -18 109q-29 106 -25 252q37 -31 84 -51q43 -18 88 -19q63 0 158 45q47 23 95 62t99 96q10 -115 54 -156q43 -45 116 -45q76 0 125 51q51 51 66 185h-41q-10 -74 -31 -99q-23 -25 -47 -24q-23 0 -39 14 q-18 18 -26 49q-6 23 -8.5 66t-2.5 102v602h-166v-690q-76 -70 -145 -98q-68 -33 -123 -33q-39 0 -88 27q-45 29 -59 72q-18 43 -19 147v575h-168v-796q0 -82 -12 -205q-6 -63 -35 -164q-6 -20 -8 -37.5t-2 -31.5z" />
<glyph unicode="&#xb6;" horiz-adv-x="1302" d="M98 449q0 -154 62.5 -240t199.5 -86q53 0 98.5 15.5t71.5 43.5v-512q14 -4 36 -8t42 -4q63 0 90 29.5t27 107.5v852l123 -2v-876q10 -2 21.5 -3.5t19.5 -1.5q43 0 60.5 21.5t17.5 93.5v762q100 -4 141 27t41 90q0 53 -33 98l-149 -4q-35 -2 -82 -2q-45 0 -94.5 1t-97.5 2 t-89 1q-133 0 -228 -29.5t-156.5 -84t-91.5 -129t-30 -162.5z" />
<glyph unicode="&#xb7;" horiz-adv-x="595" d="M104 438q0 -90 49.5 -123.5t135.5 -33.5q104 0 151 48t47 122q0 72 -43 114.5t-135 42.5t-148.5 -47t-56.5 -123z" />
<glyph unicode="&#xb8;" horiz-adv-x="641" d="M66 -279q0 -45 35.5 -68.5t88.5 -23.5q156 0 227.5 60.5t71.5 158.5q0 43 -9 94.5t-21 92.5l-219 -17q4 -43 5 -78.5t1 -76.5q0 -20 -6.5 -34.5t-23.5 -24t-50 -15.5t-86 -8q-14 -27 -14 -60z" />
<glyph unicode="&#xb9;" horiz-adv-x="735" d="M100 573q0 -23 4.5 -39t16.5 -36h387q86 0 124 25.5t38 78.5q0 18 -3 32.5t-16 33.5l-121 -4v444q0 72 -129 72q-53 0 -94 -15.5t-94 -44.5q-68 -39 -90.5 -67.5t-22.5 -59.5q0 -41 19.5 -61.5t52.5 -28.5l98 51l-1 -41t-1 -94v-94q0 -45 2 -61q-96 -2 -133 -22.5 t-37 -68.5z" />
<glyph unicode="&#xba;" horiz-adv-x="831" d="M57 805q0 -166 85 -242t251 -76q82 0 151.5 22.5t121 69t80 116t28.5 161.5q0 170 -83 246t-249 76q-178 0 -281.5 -96.5t-103.5 -276.5zM301 821q0 94 28.5 136t96.5 42q70 0 89.5 -40.5t19.5 -122.5q0 -86 -26 -132.5t-93 -46.5q-72 0 -93.5 36t-21.5 128z" />
<glyph unicode="&#xbb;" horiz-adv-x="1069" d="M119 129q0 -39 27.5 -66.5t80.5 -29.5l240 278q16 23 26.5 46.5t10.5 52.5q0 57 -41 104l-230 272q-45 0 -79.5 -23.5t-34.5 -76.5q0 -23 10 -46.5t27 -49.5l125 -184l-127 -183q-18 -29 -26.5 -47t-8.5 -47zM514 98q0 -39 27 -67.5t80 -30.5l278 317q43 49 43 103 q0 33 -12 58.5t-35 51.5l-268 308q-43 0 -78 -25t-35 -76q0 -45 41 -102l154 -219l-156 -219q-23 -29 -31 -49.5t-8 -49.5z" />
<glyph unicode="&#xbc;" horiz-adv-x="1744" d="M100 573q0 -23 4.5 -39t16.5 -36h387q86 0 124 25.5t38 78.5q0 18 -3 32.5t-16 33.5l-121 -4v444q0 72 -129 72q-53 0 -94 -15.5t-94 -44.5q-68 -39 -90.5 -67.5t-22.5 -59.5q0 -41 19.5 -61.5t52.5 -28.5l98 51l-1 -41t-1 -94v-94q0 -45 2 -61q-96 -2 -133 -22.5 t-37 -68.5zM303 -49q16 -35 50 -54.5t69 -19.5q39 0 65.5 14.5t47.5 40.5l929 1198q-16 43 -48 65t-73 22q-45 0 -70.5 -24t-53.5 -63zM926 113q0 -29 9 -56.5t32 -56.5l360 2v-184q31 -14 61.5 -20.5t71.5 -6.5q72 0 100.5 22.5t28.5 94.5v94q47 0 75 21.5t28 80.5 q0 16 -4.5 37t-10.5 33h-88v45t1 103.5t1 115.5v84q0 78 -32.5 115t-131.5 37q-23 0 -49 -4t-47 -13l-360 -438q-45 -53 -45 -106zM1139 174l188 240v-240h-188z" />
<glyph unicode="&#xbd;" horiz-adv-x="1832" d="M100 573q0 -23 4.5 -39t16.5 -36h387q86 0 124 25.5t38 78.5q0 18 -3 32.5t-16 33.5l-121 -4v444q0 72 -129 72q-53 0 -94 -15.5t-94 -44.5q-68 -39 -90.5 -67.5t-22.5 -59.5q0 -41 19.5 -61.5t52.5 -28.5l98 51l-1 -41t-1 -94v-94q0 -45 2 -61q-96 -2 -133 -22.5 t-37 -68.5zM303 -49q16 -35 50 -54.5t69 -19.5q39 0 65.5 14.5t47.5 40.5l929 1198q-16 43 -48 65t-73 22q-45 0 -70.5 -24t-53.5 -63zM1145 96q0 -49 29 -96h100q49 0 122.5 -1t141.5 -1q70 0 119 -1l49 -1q66 0 95.5 29.5t29.5 80.5q0 18 -3 31t-13 29h-306 q121 41 189.5 115.5t68.5 167.5q0 117 -68.5 175t-225.5 58q-145 0 -219 -44t-74 -103q0 -88 82 -109q35 31 77.5 44t77.5 13q88 0 88 -71q0 -29 -10 -50.5t-44 -47t-95.5 -58.5t-161.5 -80q-49 -20 -49 -80z" />
<glyph unicode="&#xbe;" horiz-adv-x="1867" d="M59 426q0 -51 52.5 -85t175.5 -34q217 0 311 77t94 208q0 59 -38 115.5t-115 68.5q68 23 103.5 70t35.5 106q0 227 -291 228q-150 0 -223.5 -44t-73.5 -104q0 -88 82 -108q35 31 78 44t78 13q47 0 66.5 -19.5t19.5 -50.5q0 -39 -31 -61.5t-129 -32.5q-20 -2 -28.5 -21.5 t-8.5 -47.5q0 -27 7 -51.5t30 -45.5q16 4 40.5 5t35.5 1q90 0 90 -69q0 -51 -31 -73.5t-131 -22.5q-45 0 -93 6t-73 14q-18 -18 -25.5 -40.5t-7.5 -45.5zM426 -49q16 -35 50 -54.5t69 -19.5q39 0 65.5 14.5t46.5 40.5l930 1198q-16 43 -48 65t-73 22q-45 0 -70.5 -24 t-54.5 -63zM1049 113q0 -29 9 -56.5t32 -56.5l360 2v-184q31 -14 61.5 -20.5t71.5 -6.5q72 0 100.5 22.5t28.5 94.5v94q47 0 75 21.5t28 80.5q0 16 -4.5 37t-10.5 33h-88v45t1 103.5t1 115.5v84q0 78 -32.5 115t-131.5 37q-23 0 -49 -4t-47 -13l-360 -438q-45 -53 -45 -106z M1262 174l188 240v-240h-188z" />
<glyph unicode="&#xbf;" horiz-adv-x="950" d="M35 -98q0 -80 49 -144.5t130 -110.5t185.5 -71t214.5 -25q39 0 78 7.5t69 25t48 48t18 77.5q0 63 -41 103q-16 -2 -32 -2h-31q-193 0 -285 38.5t-92 98.5q0 20 12 35q10 12 39 23t60.5 21.5t62.5 17.5t45 11q104 29 147.5 79t43.5 136q0 82 -43 121t-113 39q-14 0 -34 -3 t-36 -9q-6 -63 -17 -101t-35.5 -63t-70 -43t-118.5 -39q-53 -16 -100.5 -36.5t-81 -51.5t-53 -75t-19.5 -107zM424 659q0 -68 37 -107.5t123 -39.5q96 0 142 44t46 116q0 86 -44 118.5t-122 32.5q-98 0 -140 -48t-42 -116z" />
<glyph unicode="&#xc0;" d="M25 102q0 -63 33.5 -87.5t93.5 -24.5q29 0 47 1t47 7l104 256h359l77 -180q23 -53 63 -69.5t95 -16.5q127 0 176 30t49 91q0 16 -5 34.5t-13 32.5l-66 2l-403 918q-31 10 -55.5 14t-51.5 4q-61 0 -100 -22.5t-65 -81.5l-357 -799q-12 -29 -20 -54.5t-8 -54.5zM168 1487 q0 -35 13.5 -62.5t47.5 -44.5l396 -198q37 10 60.5 37.5t23.5 68.5q0 20 -8.5 39t-36.5 39l-377 262q-53 -16 -86 -55t-33 -86zM408 430l120 324l119 -324h-239z" />
<glyph unicode="&#xc1;" d="M25 102q0 -63 33.5 -87.5t93.5 -24.5q29 0 47 1t47 7l104 256h359l77 -180q23 -53 63 -69.5t95 -16.5q127 0 176 30t49 91q0 16 -5 34.5t-13 32.5l-66 2l-403 918q-31 10 -55.5 14t-51.5 4q-61 0 -100 -22.5t-65 -81.5l-357 -799q-12 -29 -20 -54.5t-8 -54.5zM408 430 l120 324l119 -324h-239zM420 1288q0 -41 22.5 -68.5t59.5 -37.5l397 198q35 16 48.5 44t13.5 63q0 47 -34 86t-85 55l-377 -262q-29 -20 -37 -38.5t-8 -39.5z" />
<glyph unicode="&#xc2;" d="M25 102q0 -63 33.5 -87.5t93.5 -24.5q29 0 47 1t47 7l104 256h359l77 -180q23 -53 63 -69.5t95 -16.5q127 0 176 30t49 91q0 16 -5 34.5t-13 32.5l-66 2l-403 918q-31 10 -55.5 14t-51.5 4q-61 0 -100 -22.5t-65 -81.5l-357 -799q-12 -29 -20 -54.5t-8 -54.5zM264 1333 q0 -53 37 -78.5t96 -25.5l144 205l98 -162q18 -29 44 -38t62 -9q63 0 102.5 28.5t41.5 81.5l-189 285q-29 10 -51 15t-51 5q-41 0 -70.5 -4t-51 -13t-38 -24.5t-32.5 -35.5l-97 -125q-29 -37 -37 -59.5t-8 -45.5zM408 430l120 324l119 -324h-239z" />
<glyph unicode="&#xc3;" d="M25 102q0 -63 33.5 -87.5t93.5 -24.5q29 0 47 1t47 7l104 256h359l77 -180q23 -53 63 -69.5t95 -16.5q127 0 176 30t49 91q0 16 -5 34.5t-13 32.5l-66 2l-403 918q-31 10 -55.5 14t-51.5 4q-61 0 -100 -22.5t-65 -81.5l-357 -799q-12 -29 -20 -54.5t-8 -54.5zM227 1284 q0 -47 30 -78.5t97 -31.5q29 53 49.5 70.5t61.5 17.5l258 -5q98 -2 155.5 44.5t57.5 132.5q0 47 -33 76.5t-98 29.5q-27 -47 -48.5 -64.5t-60.5 -15.5l-262 4q-104 2 -155.5 -50t-51.5 -130zM408 430l120 324l119 -324h-239z" />
<glyph unicode="&#xc4;" d="M25 102q0 -63 33.5 -87.5t93.5 -24.5q29 0 47 1t47 7l104 256h359l77 -180q23 -53 63 -69.5t95 -16.5q127 0 176 30t49 91q0 16 -5 34.5t-13 32.5l-66 2l-403 918q-31 10 -55.5 14t-51.5 4q-61 0 -100 -22.5t-65 -81.5l-357 -799q-12 -29 -20 -54.5t-8 -54.5zM197 1352 q0 -66 33.5 -95.5t105.5 -29.5q88 0 120.5 40t32.5 95q0 51 -30.5 88t-104.5 37q-78 0 -117.5 -38t-39.5 -97zM408 430l120 324l119 -324h-239zM631 1352q0 -66 33.5 -95.5t105.5 -29.5q88 0 121 40t33 95q0 51 -31 88t-105 37q-78 0 -117.5 -38t-39.5 -97z" />
<glyph unicode="&#xc5;" d="M25 102q0 -63 33.5 -87.5t93.5 -24.5q29 0 47 1t47 7l104 256h359l77 -180q23 -53 63 -69.5t95 -16.5q127 0 176 30t49 91q0 16 -5 34.5t-13 32.5l-66 2l-403 918q-31 10 -55.5 14t-51.5 4q-61 0 -100 -22.5t-65 -81.5l-357 -799q-12 -29 -20 -54.5t-8 -54.5zM334 1405 q0 -117 57.5 -161t165.5 -44q123 0 187.5 58.5t64.5 162.5q0 96 -52 151.5t-169 55.5q-121 0 -187.5 -62.5t-66.5 -160.5zM408 430l120 324l119 -324h-239zM496 1407q0 35 20.5 58.5t61.5 23.5q39 0 54 -21.5t15 -56.5t-18.5 -57.5t-61.5 -22.5q-33 0 -52 17.5t-19 58.5z " />
<glyph unicode="&#xc6;" horiz-adv-x="1630" d="M29 102q0 -63 28.5 -87.5t87.5 -24.5q27 0 46.5 1t48.5 7l149 256h346q2 -70 3 -113t5 -63q4 -27 19.5 -42.5t58.5 -24.5t121 -12t207 -3q133 0 216 6t129 21.5t62.5 42t16.5 69.5q0 39 -14 66h-510v250h276q102 0 141 31.5t39 92.5q0 16 -5 39t-13 37h-438v250h356 q102 0 142 37t40 98q0 23 -8 41.5t-18 32.5l-117 -4h-699q-37 0 -63.5 -5t-47 -17.5t-37.5 -34t-38 -52.5l-496 -786q-16 -27 -25 -53.5t-9 -55.5zM475 430l262 438q-2 -115 -2 -219v-219h-260z" />
<glyph unicode="&#xc7;" horiz-adv-x="1024" d="M49 502q0 -252 120 -379t349 -137q2 -33 3 -60.5t1 -60.5q0 -23 -6 -37t-23.5 -23.5t-50 -15.5t-86.5 -8q-14 -27 -14 -60q0 -45 36 -68.5t89 -23.5q156 0 227.5 60.5t71.5 158.5q0 35 -5 74t-16 76q121 18 177.5 62t56.5 110q0 29 -16.5 62.5t-55.5 50.5 q-68 -35 -139.5 -53.5t-155.5 -18.5q-57 0 -102 16.5t-77 53t-49 97t-17 148.5t18 157t58 117t104.5 73.5t157.5 25.5q59 0 119.5 -13.5t99.5 -33.5q35 23 50 47.5t15 69.5q0 39 -14 68.5t-50 48t-96.5 27.5t-152.5 9q-152 0 -268.5 -43t-196.5 -122.5t-121 -195.5t-41 -259 z" />
<glyph unicode="&#xc8;" horiz-adv-x="1042" d="M25 1004q0 -23 4 -44.5t14 -39.5l107 -5v-45q0 -43 -1.5 -107.5t-1.5 -137.5v-131q0 -174 2.5 -277.5t6.5 -138.5q4 -27 19 -42.5t58 -24.5t121 -12t207 -3q133 0 216 6t129 21.5t62.5 42t16.5 69.5q0 39 -14 66h-510v250h276q102 0 141.5 31.5t39.5 92.5q0 16 -5.5 39 t-13.5 37h-438v250h356q102 0 142 37t40 98q0 23 -8 41.5t-18 32.5l-117 -4h-625q-63 0 -103 -6t-63.5 -19.5t-31.5 -33t-8 -43.5zM129 1487q0 -35 13.5 -62.5t47.5 -44.5l398 -198q37 10 59.5 37.5t22.5 68.5q0 20 -8.5 39t-36.5 39l-377 262q-53 -16 -86 -55t-33 -86z" />
<glyph unicode="&#xc9;" horiz-adv-x="1042" d="M25 1004q0 -23 4 -44.5t14 -39.5l107 -5v-45q0 -43 -1.5 -107.5t-1.5 -137.5v-131q0 -174 2.5 -277.5t6.5 -138.5q4 -27 19 -42.5t58 -24.5t121 -12t207 -3q133 0 216 6t129 21.5t62.5 42t16.5 69.5q0 39 -14 66h-510v250h276q102 0 141.5 31.5t39.5 92.5q0 16 -5.5 39 t-13.5 37h-438v250h356q102 0 142 37t40 98q0 23 -8 41.5t-18 32.5l-117 -4h-625q-63 0 -103 -6t-63.5 -19.5t-31.5 -33t-8 -43.5zM446 1288q0 -41 23 -68.5t61 -37.5l396 198q35 16 48 44t13 63q0 47 -32.5 86t-86.5 55l-376 -262q-29 -20 -37.5 -38.5t-8.5 -39.5z" />
<glyph unicode="&#xca;" horiz-adv-x="1042" d="M25 1004q0 -23 4 -44.5t14 -39.5l107 -5v-45q0 -43 -1.5 -107.5t-1.5 -137.5v-131q0 -174 2.5 -277.5t6.5 -138.5q4 -27 19 -42.5t58 -24.5t121 -12t207 -3q133 0 216 6t129 21.5t62.5 42t16.5 69.5q0 39 -14 66h-510v250h276q102 0 141.5 31.5t39.5 92.5q0 16 -5.5 39 t-13.5 37h-438v250h356q102 0 142 37t40 98q0 23 -8 41.5t-18 32.5l-117 -4h-625q-63 0 -103 -6t-63.5 -19.5t-31.5 -33t-8 -43.5zM229 1333q0 -53 37 -78.5t96 -25.5l142 205l100 -162q16 -29 42 -38t63 -9q66 0 104.5 28.5t38.5 81.5l-186 285q-29 10 -51.5 15t-53.5 5 q-82 0 -120 -18t-70 -59l-97 -125q-29 -37 -37 -59.5t-8 -45.5z" />
<glyph unicode="&#xcb;" horiz-adv-x="1042" d="M25 1004q0 -23 4 -44.5t14 -39.5l107 -5v-45q0 -43 -1.5 -107.5t-1.5 -137.5v-131q0 -174 2.5 -277.5t6.5 -138.5q4 -27 19 -42.5t58 -24.5t121 -12t207 -3q133 0 216 6t129 21.5t62.5 42t16.5 69.5q0 39 -14 66h-510v250h276q102 0 141.5 31.5t39.5 92.5q0 16 -5.5 39 t-13.5 37h-438v250h356q102 0 142 37t40 98q0 23 -8 41.5t-18 32.5l-117 -4h-625q-63 0 -103 -6t-63.5 -19.5t-31.5 -33t-8 -43.5zM180 1352q0 -66 35 -95.5t107 -29.5q86 0 119.5 40t33.5 95q0 51 -30.5 88t-106.5 37q-78 0 -118 -38t-40 -97zM614 1352q0 -66 35 -95.5 t107 -29.5q86 0 119.5 40t33.5 95q0 51 -30.5 88t-106.5 37q-78 0 -118 -38t-40 -97z" />
<glyph unicode="&#xcc;" horiz-adv-x="686" d="M-29 1487q0 -35 12.5 -62.5t47.5 -44.5l397 -198q37 10 60.5 37.5t23.5 68.5q0 20 -8 39t-37 39l-377 262q-53 -16 -86 -55t-33 -86zM39 1004q0 -23 4 -42.5t14 -37.5l123 -4v-41t-1 -101.5t-1 -132.5v-127v-108q0 -57 1 -108.5t1 -86.5v-35q-66 -4 -98.5 -27.5 t-32.5 -84.5q0 -16 5 -35t14 -33l366 -2q102 0 152.5 25.5t50.5 87.5q0 16 -5 37.5t-14 35.5h-126v738q76 0 115.5 24.5t39.5 91.5q0 16 -5 35t-13 33h-445q-59 0 -102 -23.5t-43 -78.5z" />
<glyph unicode="&#xcd;" horiz-adv-x="686" d="M39 1004q0 -23 4 -42.5t14 -37.5l123 -4v-41t-1 -101.5t-1 -132.5v-127v-108q0 -57 1 -108.5t1 -86.5v-35q-66 -4 -98.5 -27.5t-32.5 -84.5q0 -16 5 -35t14 -33l366 -2q102 0 152.5 25.5t50.5 87.5q0 16 -5 37.5t-14 35.5h-126v738q76 0 115.5 24.5t39.5 91.5q0 16 -5 35 t-13 33h-445q-59 0 -102 -23.5t-43 -78.5zM135 1288q0 -41 23.5 -68.5t60.5 -37.5l397 198q35 16 48.5 44t13.5 63q0 47 -34 86t-87 55l-375 -262q-29 -20 -38 -38.5t-9 -39.5z" />
<glyph unicode="&#xce;" horiz-adv-x="686" d="M29 1333q0 -53 37.5 -78.5t97.5 -25.5l141 205l101 -162q16 -29 41.5 -38t62.5 -9q66 0 104.5 28.5t38.5 81.5l-186 285q-29 10 -51.5 15t-53.5 5q-82 0 -119.5 -18t-70.5 -59l-96 -125q-29 -37 -38 -59.5t-9 -45.5zM39 1004q0 -23 4 -42.5t14 -37.5l123 -4v-41 t-1 -101.5t-1 -132.5v-127v-108q0 -57 1 -108.5t1 -86.5v-35q-66 -4 -98.5 -27.5t-32.5 -84.5q0 -16 5 -35t14 -33l366 -2q102 0 152.5 25.5t50.5 87.5q0 16 -5 37.5t-14 35.5h-126v738q76 0 115.5 24.5t39.5 91.5q0 16 -5 35t-13 33h-445q-59 0 -102 -23.5t-43 -78.5z" />
<glyph unicode="&#xcf;" horiz-adv-x="686" d="M-2 1352q0 -66 35 -95.5t106 -29.5q86 0 119 40t33 95q0 51 -30 88t-105 37q-78 0 -118 -38t-40 -97zM39 1004q0 -23 4 -42.5t14 -37.5l123 -4v-41t-1 -101.5t-1 -132.5v-127v-108q0 -57 1 -108.5t1 -86.5v-35q-66 -4 -98.5 -27.5t-32.5 -84.5q0 -16 5 -35t14 -33l366 -2 q102 0 152.5 25.5t50.5 87.5q0 16 -5 37.5t-14 35.5h-126v738q76 0 115.5 24.5t39.5 91.5q0 16 -5 35t-13 33h-445q-59 0 -102 -23.5t-43 -78.5zM381 1352q0 -66 35 -95.5t106 -29.5q86 0 119 40t33 95q0 51 -30 88t-105 37q-78 0 -118 -38t-40 -97z" />
<glyph unicode="&#xd0;" horiz-adv-x="1206" d="M0 553q0 -27 5 -50.5t22 -41.5l114 -2q0 -160 3 -250t8 -123q8 -51 89 -68.5t269 -17.5q150 0 271.5 33t207.5 104.5t133 186t47 280.5q0 111 -30.5 203t-100 158.5t-179 103.5t-267.5 37h-367q-63 0 -103 -6t-63.5 -19.5t-32 -33t-8.5 -43.5q0 -23 4.5 -42.5t14.5 -37.5 l106 -4v-25v-61q0 -37 -1 -85.5t-1 -97.5h-30q-53 0 -82 -26.5t-29 -71.5zM451 197v256l36 -2q66 -2 108 24.5t42 89.5q0 27 -9.5 50.5t-19.5 37.5l-123 -2h-34v258l31 1q32 1 59 1q164 0 240.5 -83t76.5 -263q0 -207 -74.5 -291t-220.5 -84q-29 0 -61.5 2.5t-50.5 4.5z" />
<glyph unicode="&#xd1;" horiz-adv-x="1280" d="M18 1004q0 27 11.5 48t40 34.5t80 20.5t129.5 7q43 0 73.5 -6t55 -20.5t46 -38t48.5 -60.5l416 -575v291v139q0 61 -1.5 107t-2.5 80t-1 61q23 16 46.5 20t64.5 4q55 0 85 -16.5t42 -72.5t14 -163.5t2 -288.5v-186t-1 -176t-1 -133v-51q-12 -6 -31.5 -13.5t-43 -13.5 t-48 -9t-45.5 -3q-37 0 -60.5 2t-40.5 8t-29.5 17.5t-24.5 29.5l-459 643v-676q-23 -10 -48.5 -15t-60.5 -5q-41 0 -65.5 4t-38.5 13t-19.5 22.5t-7.5 32.5q-4 41 -4 153v279q0 113 1 227.5t3 194.5l-106 4q-10 18 -14.5 37.5t-4.5 42.5zM317 1284q0 -47 30 -78.5t97 -31.5 q29 53 49.5 70.5t61.5 17.5l258 -5q98 -2 155.5 44.5t57.5 132.5q0 47 -32.5 76.5t-98.5 29.5q-27 -47 -48.5 -64.5t-60.5 -15.5l-262 4q-104 2 -155.5 -50t-51.5 -130z" />
<glyph unicode="&#xd2;" horiz-adv-x="1220" d="M49 500q0 -145 37 -243.5t105.5 -158t168 -86t224.5 -26.5q293 0 440 160.5t147 441.5q0 260 -124.5 397t-403.5 137q-143 0 -253.5 -45t-186.5 -126t-115 -195.5t-39 -255.5zM227 1487q0 -35 13.5 -62.5t48.5 -44.5l397 -198q37 10 59.5 37.5t22.5 68.5q0 20 -8 39 t-37 39l-377 262q-51 -16 -85 -55t-34 -86zM358 526q0 172 59.5 270.5t209.5 98.5q76 0 123 -22.5t74.5 -65.5t37.5 -105.5t10 -142.5q0 -365 -262 -364q-70 0 -118 16t-77.5 55t-43 102.5t-13.5 157.5z" />
<glyph unicode="&#xd3;" horiz-adv-x="1220" d="M49 500q0 -145 37 -243.5t105.5 -158t168 -86t224.5 -26.5q293 0 440 160.5t147 441.5q0 260 -124.5 397t-403.5 137q-143 0 -253.5 -45t-186.5 -126t-115 -195.5t-39 -255.5zM358 526q0 172 59.5 270.5t209.5 98.5q76 0 123 -22.5t74.5 -65.5t37.5 -105.5t10 -142.5 q0 -365 -262 -364q-70 0 -118 16t-77.5 55t-43 102.5t-13.5 157.5zM504 1288q0 -41 23.5 -68.5t60.5 -37.5l397 198q35 16 48.5 44t13.5 63q0 47 -34 86t-87 55l-375 -262q-29 -20 -38 -38.5t-9 -39.5z" />
<glyph unicode="&#xd4;" horiz-adv-x="1220" d="M49 500q0 -145 37 -243.5t105.5 -158t168 -86t224.5 -26.5q293 0 440 160.5t147 441.5q0 260 -124.5 397t-403.5 137q-143 0 -253.5 -45t-186.5 -126t-115 -195.5t-39 -255.5zM332 1333q0 -53 37 -78.5t96 -25.5l143 205l99 -162q18 -29 43.5 -38t62.5 -9 q66 0 103.5 28.5t39.5 81.5l-186 285q-29 10 -52.5 15t-51.5 5q-82 0 -121 -18t-72 -59l-96 -125q-27 -37 -36 -59.5t-9 -45.5zM358 526q0 172 59.5 270.5t209.5 98.5q76 0 123 -22.5t74.5 -65.5t37.5 -105.5t10 -142.5q0 -365 -262 -364q-70 0 -118 16t-77.5 55t-43 102.5 t-13.5 157.5z" />
<glyph unicode="&#xd5;" horiz-adv-x="1220" d="M49 500q0 -145 37 -243.5t105.5 -158t168 -86t224.5 -26.5q293 0 440 160.5t147 441.5q0 260 -124.5 397t-403.5 137q-143 0 -253.5 -45t-186.5 -126t-115 -195.5t-39 -255.5zM301 1284q0 -47 29.5 -78.5t97.5 -31.5q29 53 49.5 70.5t61.5 17.5l258 -5q98 -2 155.5 44.5 t57.5 132.5q0 47 -33 76.5t-98 29.5q-27 -47 -48.5 -64.5t-60.5 -15.5l-262 4q-104 2 -155.5 -50t-51.5 -130zM358 526q0 172 59.5 270.5t209.5 98.5q76 0 123 -22.5t74.5 -65.5t37.5 -105.5t10 -142.5q0 -365 -262 -364q-70 0 -118 16t-77.5 55t-43 102.5t-13.5 157.5z" />
<glyph unicode="&#xd6;" horiz-adv-x="1220" d="M51 500q0 -145 37 -243.5t105.5 -158t168 -86t224.5 -26.5q295 0 441.5 160.5t146.5 441.5q0 260 -125 397t-404 137q-143 0 -253.5 -45t-186.5 -126t-115 -195.5t-39 -255.5zM281 1352q0 -66 34.5 -95.5t106.5 -29.5q86 0 119.5 40t33.5 95q0 51 -30.5 88t-106.5 37 q-78 0 -117.5 -38t-39.5 -97zM360 526q0 86 14.5 155t46.5 116t83 72.5t127 25.5q74 0 122 -22.5t74.5 -65.5t36.5 -105.5t10 -142.5q0 -365 -262 -364q-68 0 -115.5 16t-78.5 55t-44.5 102.5t-13.5 157.5zM715 1352q0 -66 34.5 -95.5t106.5 -29.5q86 0 120 40t34 95 q0 51 -31 88t-107 37q-78 0 -117.5 -38t-39.5 -97z" />
<glyph unicode="&#xd7;" horiz-adv-x="876" d="M84 657l221 -225l-213 -217q-10 -53 9.5 -89t86.5 -36q61 0 99 39l145 160l143 -158q39 -41 109 -41q59 0 85 35t22 86l-218 223l220 223q8 49 -12.5 85t-86.5 36q-35 0 -57.5 -9t-42.5 -32l-148 -159l-147 157q-20 20 -44 30.5t-62 10.5q-63 0 -89 -38t-20 -81z" />
<glyph unicode="&#xd8;" horiz-adv-x="1220" d="M49 500q0 -190 61.5 -300t178.5 -161l-88 -197q18 -31 50 -43t62 -12q35 0 57.5 15.5t32.5 39.5l66 150q55 -6 115 -6q293 0 440 160.5t147 441.5q0 174 -54 292.5t-171 180.5l84 186q-20 31 -54 47.5t-67 16.5q-43 0 -62.5 -19.5t-39.5 -66.5l-49 -109q-53 6 -115 6 q-143 0 -253.5 -45t-186.5 -126t-115 -195.5t-39 -255.5zM356 526q0 86 14.5 155t46.5 117t83 73.5t127 25.5h39l-267 -610q-23 43 -33 101t-10 138zM559 197l270 606q27 -47 36 -106.5t9 -137.5q0 -367 -264 -366q-14 0 -26.5 1t-24.5 3z" />
<glyph unicode="&#xd9;" horiz-adv-x="1226" d="M18 1004q0 -23 4.5 -42.5t14.5 -37.5l104 -4q0 -43 -1 -102.5t-2 -126t-2 -135.5t-1 -128q0 -131 26.5 -216t86 -135t154 -69.5t227.5 -19.5q229 0 348 105.5t139 295.5q8 78 10 172t2 205q0 115 -7 183.5t-25.5 105.5t-51 49t-83.5 12q-27 0 -55.5 -6t-51.5 -18 q4 -86 5 -193.5t1 -200.5q0 -96 -1 -169.5t-5 -133.5q-4 -109 -62.5 -149.5t-140.5 -40.5q-106 0 -152 40t-46 144v43v76q0 45 1 94t1 92v78v45v39q0 33 1 66.5t1 60.5v27t-5.5 46t-27 32.5t-63.5 19.5t-115 6q-129 0 -178.5 -27.5t-49.5 -82.5zM215 1487q0 -35 13.5 -62.5 t47.5 -44.5l398 -198q37 10 59.5 37.5t22.5 68.5q0 20 -8.5 39t-36.5 39l-377 262q-53 -16 -86 -55t-33 -86z" />
<glyph unicode="&#xda;" horiz-adv-x="1226" d="M18 1004q0 -23 4.5 -42.5t14.5 -37.5l104 -4q0 -43 -1 -102.5t-2 -126t-2 -135.5t-1 -128q0 -131 26.5 -216t86 -135t154 -69.5t227.5 -19.5q229 0 348 105.5t139 295.5q8 78 10 172t2 205q0 115 -7 183.5t-25.5 105.5t-51 49t-83.5 12q-27 0 -55.5 -6t-51.5 -18 q4 -86 5 -193.5t1 -200.5q0 -96 -1 -169.5t-5 -133.5q-4 -109 -62.5 -149.5t-140.5 -40.5q-106 0 -152 40t-46 144v43v76q0 45 1 94t1 92v78v45v39q0 33 1 66.5t1 60.5v27t-5.5 46t-27 32.5t-63.5 19.5t-115 6q-129 0 -178.5 -27.5t-49.5 -82.5zM553 1288q0 -41 23.5 -68.5 t60.5 -37.5l395 198q35 16 48.5 44t13.5 63q0 47 -33 86t-86 55l-377 -262q-29 -20 -37 -38.5t-8 -39.5z" />
<glyph unicode="&#xdb;" horiz-adv-x="1226" d="M18 1004q0 -23 4.5 -42.5t14.5 -37.5l104 -4q0 -43 -1 -102.5t-2 -126t-2 -135.5t-1 -128q0 -131 26.5 -216t86 -135t154 -69.5t227.5 -19.5q229 0 348 105.5t139 295.5q8 78 10 172t2 205q0 115 -7 183.5t-25.5 105.5t-51 49t-83.5 12q-27 0 -55.5 -6t-51.5 -18 q4 -86 5 -193.5t1 -200.5q0 -96 -1 -169.5t-5 -133.5q-4 -109 -62.5 -149.5t-140.5 -40.5q-106 0 -152 40t-46 144v43v76q0 45 1 94t1 92v78v45v39q0 33 1 66.5t1 60.5v27t-5.5 46t-27 32.5t-63.5 19.5t-115 6q-129 0 -178.5 -27.5t-49.5 -82.5zM348 1333q0 -53 37 -78.5 t96 -25.5l144 205l98 -162q18 -29 44 -38t62 -9q66 0 104 28.5t40 81.5l-187 285q-29 10 -52 15t-52 5q-82 0 -121 -18t-72 -59l-96 -125q-29 -37 -37 -59.5t-8 -45.5z" />
<glyph unicode="&#xdc;" horiz-adv-x="1226" d="M18 1004q0 -23 4.5 -42.5t14.5 -37.5l104 -4q0 -43 -1 -102.5t-2 -126t-2 -135.5t-1 -128q0 -131 26.5 -216t86 -135t154 -69.5t227.5 -19.5q229 0 348 105.5t139 295.5q8 78 10 172t2 205q0 115 -7 183.5t-25.5 105.5t-51 49t-83.5 12q-27 0 -55.5 -6t-51.5 -18 q4 -86 5 -193.5t1 -200.5q0 -96 -1 -169.5t-5 -133.5q-4 -109 -62.5 -149.5t-140.5 -40.5q-106 0 -152 40t-46 144v43v76q0 45 1 94t1 92v78v45v39q0 33 1 66.5t1 60.5v27t-5.5 46t-27 32.5t-63.5 19.5t-115 6q-129 0 -178.5 -27.5t-49.5 -82.5zM287 1352q0 -66 34.5 -95.5 t106.5 -29.5q86 0 120 40t34 95q0 51 -31 88t-107 37q-78 0 -117.5 -38t-39.5 -97zM721 1352q0 -66 35 -95.5t106 -29.5q86 0 120 40t34 95q0 51 -31 88t-106 37q-78 0 -118 -38t-40 -97z" />
<glyph unicode="&#xdd;" horiz-adv-x="1073" d="M20 991q0 -29 3.5 -44t9.5 -27l63 -2l297 -455q0 -174 1 -269.5t7 -130.5q12 -74 146 -73q41 0 88 5t72 19v469l254 338q59 78 75.5 120t16.5 77q0 39 -23.5 65.5t-87.5 26.5q-25 0 -46.5 -2t-47.5 -10l-264 -375l-176 291q-35 57 -65 75.5t-85 18.5q-123 0 -180.5 -25.5 t-57.5 -91.5zM496 1305q0 -39 23.5 -67t60.5 -40l395 199q35 16 48 44.5t13 63.5q0 47 -32.5 86t-85.5 54l-377 -263q-29 -18 -37 -37.5t-8 -39.5z" />
<glyph unicode="&#xde;" horiz-adv-x="1081" d="M18 1004q0 -23 4.5 -42.5t14.5 -37.5l106 -4v-46q0 -45 -1 -109.5t-1 -139.5v-131q0 -174 2 -279.5t7 -140.5q6 -35 40.5 -56.5t104.5 -21.5q61 0 111 11l49 11v291q25 -2 69.5 -3t87.5 -1q225 0 335 102.5t110 274.5q0 70 -24.5 127t-82 96t-148.5 59.5t-224 20.5h-123 v51q0 18 -6.5 31.5t-27 23t-57 13.5t-98.5 4q-143 0 -195.5 -22.5t-52.5 -81.5zM455 487v306q25 2 56.5 3t68.5 1q119 0 162.5 -43t43.5 -109q0 -78 -43 -120t-129 -42q-51 0 -90 1t-69 3z" />
<glyph unicode="&#xdf;" horiz-adv-x="1222" d="M-94 -279q0 -45 34.5 -78.5t114.5 -33.5q86 0 150.5 20.5t108.5 68.5t68 125t24 191l2 736q0 70 7 116.5t25.5 74.5t52 40t87.5 12q66 0 87 -29.5t21 -68.5q0 -37 -16.5 -63.5t-44.5 -57.5q-55 -59 -80 -109.5t-25 -103.5q0 -76 42 -115.5t143 -74.5q63 -23 99 -37.5 t54.5 -25.5t22.5 -22.5t4 -29.5q0 -68 -109 -68q-78 0 -136 17.5t-103 42.5q-29 -14 -44.5 -46t-15.5 -57q0 -37 12.5 -66.5t44 -50t90 -30.5t150.5 -10q106 0 182 27.5t124 73.5t70 105.5t22 122.5q0 84 -41 143.5t-164 100.5q-57 18 -89 31.5t-48.5 24t-20.5 21.5t-4 26 q0 16 8 34.5t45 59.5q43 49 67.5 97t24.5 103q0 61 -16 108.5t-56 81.5t-105.5 51.5t-164.5 17.5q-121 0 -209 -23t-147 -72t-93 -129.5t-44 -197.5q-8 -100 -9.5 -215t-1.5 -281q0 -152 -1 -240t-2 -134t-4 -60.5t-7 -20.5q-8 -10 -16 -15t-23.5 -9t-44 -5t-80.5 -1 q-23 -33 -22 -93z" />
<glyph unicode="&#xe0;" horiz-adv-x="1001" d="M41 221q0 -104 66.5 -168.5t207.5 -64.5q117 0 193 41t96 133v-33q0 -90 46 -115.5t132 -25.5q117 0 170.5 30t53.5 93q0 18 -6.5 42.5t-22.5 36.5q-16 -2 -29 -2h-22q-35 0 -45.5 15.5t-8.5 68.5l5 303q2 68 -25 120.5t-76 88t-117.5 53t-154.5 17.5 q-109 0 -187.5 -15.5t-132 -42t-79 -59t-25.5 -67.5q0 -47 26.5 -82t94.5 -39q43 43 111.5 72.5t133.5 29.5q78 0 109 -20.5t29 -79.5v-80q-43 4 -84 7t-84 3q-193 0 -284 -65.5t-91 -194.5zM72 1229q0 -35 13 -63.5t48 -45.5l395 -198q37 12 60.5 39.5t23.5 66.5 q0 20 -8 39.5t-37 40.5l-377 262q-53 -16 -85.5 -55t-32.5 -86zM326 244q0 53 30.5 75.5t100.5 22.5q41 0 64.5 -2t58.5 -8v-105q-31 -31 -69 -47t-97 -16q-39 0 -63.5 19.5t-24.5 60.5z" />
<glyph unicode="&#xe1;" horiz-adv-x="1001" d="M41 221q0 -104 66.5 -168.5t207.5 -64.5q117 0 193 41t96 133v-33q0 -90 46 -115.5t132 -25.5q117 0 170.5 30t53.5 93q0 18 -6.5 42.5t-22.5 36.5q-16 -2 -29 -2h-22q-35 0 -45.5 15.5t-8.5 68.5l5 303q2 68 -25 120.5t-76 88t-117.5 53t-154.5 17.5 q-109 0 -187.5 -15.5t-132 -42t-79 -59t-25.5 -67.5q0 -47 26.5 -82t94.5 -39q43 43 111.5 72.5t133.5 29.5q78 0 109 -20.5t29 -79.5v-80q-43 4 -84 7t-84 3q-193 0 -284 -65.5t-91 -194.5zM326 244q0 53 30.5 75.5t100.5 22.5q41 0 64.5 -2t58.5 -8v-105q-31 -31 -69 -47 t-97 -16q-39 0 -63.5 19.5t-24.5 60.5zM397 1028q0 -39 22.5 -66.5t59.5 -39.5l398 198q35 16 48 45t13 64q0 47 -34 86t-85 55l-377 -262q-29 -20 -37 -39.5t-8 -40.5z" />
<glyph unicode="&#xe2;" horiz-adv-x="1001" d="M41 221q0 -104 66.5 -168.5t207.5 -64.5q117 0 193 41t96 133v-33q0 -90 46 -115.5t132 -25.5q117 0 170.5 30t53.5 93q0 18 -6.5 42.5t-22.5 36.5q-16 -2 -29 -2h-22q-35 0 -45.5 15.5t-8.5 68.5l5 303q2 68 -25 120.5t-76 88t-117.5 53t-154.5 17.5 q-109 0 -187.5 -15.5t-132 -42t-79 -59t-25.5 -67.5q0 -47 26.5 -82t94.5 -39q43 43 111.5 72.5t133.5 29.5q78 0 109 -20.5t29 -79.5v-80q-43 4 -84 7t-84 3q-193 0 -284 -65.5t-91 -194.5zM193 1061q0 -53 36.5 -79t96.5 -26l143 205l98 -162q18 -29 44 -38t63 -9 q66 0 103.5 29t39.5 82l-186 285q-29 10 -52.5 15t-52.5 5q-82 0 -120.5 -19.5t-71.5 -60.5l-96 -125q-27 -35 -36 -57.5t-9 -44.5zM326 244q0 53 30.5 75.5t100.5 22.5q41 0 64.5 -2t58.5 -8v-105q-31 -31 -69 -47t-97 -16q-39 0 -63.5 19.5t-24.5 60.5z" />
<glyph unicode="&#xe3;" horiz-adv-x="1001" d="M41 221q0 -104 66.5 -168.5t207.5 -64.5q117 0 193 41t96 133v-33q0 -90 46 -115.5t132 -25.5q117 0 170.5 30t53.5 93q0 18 -6.5 42.5t-22.5 36.5q-16 -2 -29 -2h-22q-35 0 -45.5 15.5t-8.5 68.5l5 303q2 68 -25 120.5t-76 88t-117.5 53t-154.5 17.5 q-109 0 -187.5 -15.5t-132 -42t-79 -59t-25.5 -67.5q0 -47 26.5 -82t94.5 -39q43 43 111.5 72.5t133.5 29.5q78 0 109 -20.5t29 -79.5v-80q-43 4 -84 7t-84 3q-193 0 -284 -65.5t-91 -194.5zM162 1057q0 -47 29.5 -79t97.5 -32q29 53 49 70.5t61 17.5l258 -4q98 -2 155.5 44 t57.5 132q0 47 -32.5 77t-98.5 30q-27 -47 -48 -64.5t-60 -15.5l-262 4q-104 2 -155.5 -50t-51.5 -130zM326 244q0 53 30.5 75.5t100.5 22.5q41 0 64.5 -2t58.5 -8v-105q-31 -31 -69 -47t-97 -16q-39 0 -63.5 19.5t-24.5 60.5z" />
<glyph unicode="&#xe4;" horiz-adv-x="1001" d="M41 221q0 -104 66.5 -168.5t207.5 -64.5q117 0 193 41t96 133v-33q0 -90 46 -115.5t132 -25.5q117 0 170.5 30t53.5 93q0 18 -6.5 42.5t-22.5 36.5q-16 -2 -29 -2h-22q-35 0 -45.5 15.5t-8.5 68.5l5 303q2 68 -25 120.5t-76 88t-117.5 53t-154.5 17.5 q-109 0 -187.5 -15.5t-132 -42t-79 -59t-25.5 -67.5q0 -47 26.5 -82t94.5 -39q43 43 111.5 72.5t133.5 29.5q78 0 109 -20.5t29 -79.5v-80q-43 4 -84 7t-84 3q-193 0 -284 -65.5t-91 -194.5zM137 1102q0 -66 35 -95.5t107 -29.5q86 0 119.5 40t33.5 95q0 53 -30.5 89 t-106.5 36q-78 0 -118 -38t-40 -97zM326 244q0 53 30.5 75.5t100.5 22.5q41 0 64.5 -2t58.5 -8v-105q-31 -31 -69 -47t-97 -16q-39 0 -63.5 19.5t-24.5 60.5zM571 1102q0 -66 35 -95.5t107 -29.5q86 0 119.5 40t33.5 95q0 53 -30.5 89t-106.5 36q-78 0 -118 -38t-40 -97z " />
<glyph unicode="&#xe5;" horiz-adv-x="1001" d="M41 221q0 -104 66.5 -168.5t207.5 -64.5q117 0 193 41t96 133v-33q0 -90 46 -115.5t132 -25.5q117 0 170.5 30t53.5 93q0 18 -6.5 42.5t-22.5 36.5q-16 -2 -29 -2h-22q-35 0 -45.5 15.5t-8.5 68.5l5 303q2 68 -25 120.5t-76 88t-117.5 53t-154.5 17.5 q-109 0 -187.5 -15.5t-132 -42t-79 -59t-25.5 -67.5q0 -47 26.5 -82t94.5 -39q43 43 111.5 72.5t133.5 29.5q78 0 109 -20.5t29 -79.5v-80q-43 4 -84 7t-84 3q-193 0 -284 -65.5t-91 -194.5zM279 1147q0 -113 55 -155t160 -42q117 0 178 56.5t61 154.5q0 92 -50 144.5 t-161 52.5q-115 0 -179 -58.5t-64 -152.5zM326 244q0 53 30.5 75.5t100.5 22.5q41 0 64.5 -2t58.5 -8v-105q-31 -31 -69 -47t-97 -16q-39 0 -63.5 19.5t-24.5 60.5zM434 1147q0 35 19.5 56.5t58.5 21.5q35 0 51.5 -20.5t16.5 -51.5q0 -35 -17.5 -56.5t-58.5 -21.5 q-31 0 -50.5 16.5t-19.5 55.5z" />
<glyph unicode="&#xe6;" horiz-adv-x="1466" d="M41 221q0 -104 66.5 -168.5t207.5 -64.5q256 0 322 143q35 -70 123 -106.5t223 -36.5q197 0 311.5 42t114.5 128q0 29 -15.5 58.5t-47.5 39.5q-66 -33 -148 -49.5t-145 -16.5q-57 0 -93 13.5t-55.5 37t-27 57.5t-7.5 75h471q18 0 34 8t27 29.5t18 57.5t7 93 q0 135 -97 215t-265 80q-92 0 -159.5 -20.5t-125.5 -55.5q-96 74 -276 74q-109 0 -187.5 -15.5t-132 -42t-79 -59t-25.5 -67.5q0 -47 26.5 -82t94.5 -39q43 43 111.5 72.5t133.5 29.5q78 0 109 -20.5t29 -79.5v-80q-43 4 -84 7t-84 3q-193 0 -284 -65.5t-91 -194.5zM326 244 q0 53 30.5 75.5t100.5 22.5q41 0 64.5 -2t58.5 -8v-105q-31 -31 -69 -47t-97 -16q-39 0 -63.5 19.5t-24.5 60.5zM877 510q10 80 48 116t107 36q66 0 83.5 -34t17.5 -87q0 -20 -3 -31h-253z" />
<glyph unicode="&#xe7;" horiz-adv-x="854" d="M41 383q0 -190 87 -284.5t273 -108.5q2 -33 2 -62v-65q0 -20 -6 -34.5t-23.5 -24t-50 -15.5t-85.5 -8q-14 -27 -15 -60q0 -45 37 -68.5t90 -23.5q156 0 227.5 60.5t71.5 158.5q0 35 -6 75t-16 75q92 16 143 51t51 96q0 29 -16.5 62t-48.5 43q-111 -51 -224 -51 q-100 0 -142 47t-42 174q0 123 46 172t151 49q49 0 101 -9t102 -30q33 16 50 47t17 72q0 59 -62.5 96t-199.5 37q-117 0 -211 -30.5t-161.5 -90t-103.5 -147.5t-36 -203z" />
<glyph unicode="&#xe8;" horiz-adv-x="946" d="M41 383q0 -211 107.5 -303t314.5 -92q197 0 311.5 42t114.5 128q0 29 -15.5 58.5t-48.5 39.5q-66 -33 -147.5 -49.5t-145.5 -16.5q-57 0 -93 13.5t-55 37t-26.5 57.5t-7.5 75h471q18 0 33.5 8t27 29.5t18.5 57.5t7 93q0 135 -97 215t-265 80q-117 0 -211 -34t-158.5 -95 t-99.5 -149.5t-35 -194.5zM123 1229q0 -35 13.5 -63.5t47.5 -45.5l396 -198q37 12 60.5 39.5t23.5 66.5q0 20 -8.5 39.5t-37.5 40.5l-376 262q-53 -16 -86 -55t-33 -86zM356 510q10 80 48 116t108 36q66 0 83 -34t17 -87q0 -21 -2 -31h-254z" />
<glyph unicode="&#xe9;" horiz-adv-x="946" d="M41 383q0 -211 107.5 -303t314.5 -92q197 0 311.5 42t114.5 128q0 29 -15.5 58.5t-48.5 39.5q-66 -33 -147.5 -49.5t-145.5 -16.5q-57 0 -93 13.5t-55 37t-26.5 57.5t-7.5 75h471q18 0 33.5 8t27 29.5t18.5 57.5t7 93q0 135 -97 215t-265 80q-117 0 -211 -34t-158.5 -95 t-99.5 -149.5t-35 -194.5zM356 510q10 80 48 116t108 36q66 0 83 -34t17 -87q0 -21 -2 -31h-254zM397 1028q0 -39 23.5 -66.5t60.5 -39.5l398 198q35 16 48 45t13 64q0 47 -34 86t-87 55l-375 -262q-29 -20 -38 -39.5t-9 -40.5z" />
<glyph unicode="&#xea;" horiz-adv-x="946" d="M41 383q0 -211 107.5 -303t314.5 -92q197 0 311.5 42t114.5 128q0 29 -15.5 58.5t-48.5 39.5q-66 -33 -147.5 -49.5t-145.5 -16.5q-57 0 -93 13.5t-55 37t-26.5 57.5t-7.5 75h471q18 0 33.5 8t27 29.5t18.5 57.5t7 93q0 135 -97 215t-265 80q-117 0 -211 -34t-158.5 -95 t-99.5 -149.5t-35 -194.5zM215 1061q0 -53 37 -79t96 -26l144 205l98 -162q18 -29 42.5 -38t63.5 -9q63 0 102.5 29t39.5 82l-187 285q-29 10 -51 15t-51 5q-41 0 -70.5 -5t-51 -14.5t-38 -24.5t-33.5 -36l-96 -125q-29 -35 -37 -57.5t-8 -44.5zM356 510q10 80 48 116 t108 36q66 0 83 -34t17 -87q0 -21 -2 -31h-254z" />
<glyph unicode="&#xeb;" horiz-adv-x="946" d="M41 383q0 -211 107.5 -303t314.5 -92q197 0 311.5 42t114.5 128q0 29 -15.5 58.5t-48.5 39.5q-66 -33 -147.5 -49.5t-145.5 -16.5q-57 0 -93 13.5t-55 37t-26.5 57.5t-7.5 75h471q18 0 33.5 8t27 29.5t18.5 57.5t7 93q0 135 -97 215t-265 80q-117 0 -211 -34t-158.5 -95 t-99.5 -149.5t-35 -194.5zM147 1102q0 -66 35 -95.5t107 -29.5q86 0 119.5 40t33.5 95q0 53 -30.5 89t-106.5 36q-78 0 -118 -38t-40 -97zM356 510q10 80 48 116t108 36q66 0 83 -34t17 -87q0 -21 -2 -31h-254zM582 1102q0 -66 34.5 -95.5t106.5 -29.5q86 0 120 40t34 95 q0 53 -31 89t-107 36q-78 0 -117.5 -38t-39.5 -97z" />
<glyph unicode="&#xec;" horiz-adv-x="557" d="M-92 1229q0 -35 12 -63.5t47 -45.5l398 -198q37 12 60.5 39.5t23.5 66.5q0 20 -8.5 39.5t-37.5 40.5l-376 262q-53 -16 -86 -55t-33 -86zM6 737q0 -23 4 -44t15 -38l104 -4l-1 -71q-1 -72 -1 -199q0 -117 1 -188.5t3 -118.5q4 -49 44 -66.5t108 -17.5q45 0 82.5 4 t64.5 18v758q0 39 -45.5 59.5t-151.5 20.5q-129 0 -178 -27.5t-49 -85.5z" />
<glyph unicode="&#xed;" horiz-adv-x="557" d="M6 737q0 -23 4 -44t15 -38l104 -4l-1 -71q-1 -72 -1 -199q0 -117 1 -188.5t3 -118.5q4 -49 44 -66.5t108 -17.5q45 0 82.5 4t64.5 18v758q0 39 -45.5 59.5t-151.5 20.5q-129 0 -178 -27.5t-49 -85.5zM111 1028q0 -39 23.5 -66.5t60.5 -39.5l397 198q35 16 48 45t13 64 q0 47 -33.5 86t-87.5 55l-374 -262q-29 -20 -38 -39.5t-9 -40.5z" />
<glyph unicode="&#xee;" horiz-adv-x="557" d="M-49 1061q0 -53 37 -79t96 -26l143 205l99 -162q18 -29 42.5 -38t63.5 -9q63 0 102 29t39 82l-186 285q-29 10 -51.5 15t-50.5 5q-41 0 -71 -5t-51.5 -14.5t-37.5 -24.5t-33 -36l-96 -125q-29 -35 -37 -57.5t-8 -44.5zM6 737q0 -23 4 -44t15 -38l106 -4l-2 -71 q-2 -72 -2 -199q0 -117 1 -188.5t5 -118.5q2 -49 42 -66.5t108 -17.5q47 0 85 4t64 18v758q0 39 -45 59.5t-151 20.5q-129 0 -179.5 -27.5t-50.5 -85.5z" />
<glyph unicode="&#xef;" horiz-adv-x="557" d="M-66 1102q0 -66 35 -95.5t105 -29.5q88 0 120.5 40t32.5 95q0 53 -30.5 89t-104.5 36q-78 0 -118 -38t-40 -97zM6 737q0 -23 4 -44t15 -38l104 -4l-1 -71q-1 -72 -1 -199q0 -117 1 -188.5t3 -118.5q4 -49 44 -66.5t108 -17.5q45 0 82.5 4t64.5 18v758q0 39 -45.5 59.5 t-151.5 20.5q-129 0 -178 -27.5t-49 -85.5zM307 1102q0 -66 35 -95.5t104 -29.5q88 0 121 40t33 95q0 53 -30.5 89t-104.5 36q-78 0 -118 -38t-40 -97z" />
<glyph unicode="&#xf0;" horiz-adv-x="978" d="M33 354q0 -197 98 -282.5t299 -85.5q115 0 209 38.5t161.5 116.5t104.5 198t37 284q0 102 -19.5 189t-62.5 167q39 23 51.5 40t12.5 54q-2 29 -20.5 57.5t-47.5 45.5l-104 -46q-41 37 -87.5 63t-103.5 42t-130 23.5t-165 7.5q-100 0 -140 -35t-40 -94q0 -25 7 -50.5 t24 -46.5q154 0 223.5 -9t99.5 -25q-80 -31 -102.5 -57.5t-22.5 -59.5q0 -29 15.5 -56.5t46.5 -41.5l213 81q35 -57 44 -113.5t9 -125.5q-18 39 -76.5 70.5t-158.5 31.5q-78 0 -146.5 -23.5t-120 -70.5t-80 -118.5t-28.5 -168.5zM328 352q0 188 155 189q55 0 94 -18.5 t62 -47.5q-4 -129 -55.5 -203.5t-124.5 -74.5q-74 0 -102.5 42t-28.5 113z" />
<glyph unicode="&#xf1;" horiz-adv-x="1118" d="M6 737q0 29 9.5 50.5t33 35t64.5 20.5t104 7q61 0 119.5 -7t91.5 -22l-22 -164q29 106 111.5 150.5t191.5 44.5q141 0 213.5 -58.5t72.5 -207.5v-80t-1 -110.5t-2 -117t-3 -98.5l98 -2q8 -14 12.5 -33.5t4.5 -35.5q0 -119 -205 -119q-68 0 -108.5 6t-62 24.5t-28 50 t-6.5 85.5q0 25 1 78t1 110q0 59 1 110.5t1 73.5q0 74 -26 99.5t-92 25.5q-51 0 -86 -21.5t-64 -64.5v-555q-27 -14 -66.5 -18t-80.5 -4q-78 0 -113 20.5t-39 63.5q-2 47 -3 102t-1 123v125q0 63 1 113.5t1 80.5v33l-104 4q-10 16 -14.5 38t-4.5 44zM221 1057q0 -47 30 -79 t97 -32q29 53 49.5 70.5t61.5 17.5l258 -4q98 -2 155.5 44t57.5 132q0 47 -33 77t-98 30q-27 -47 -48.5 -64.5t-60.5 -15.5l-262 4q-104 2 -155.5 -50t-51.5 -130z" />
<glyph unicode="&#xf2;" horiz-adv-x="999" d="M41 387q0 -213 110.5 -307t317.5 -94q104 0 193.5 28.5t155 86t103 144.5t37.5 206q0 213 -107.5 309t-315.5 96q-111 0 -202 -31.5t-155.5 -91t-100.5 -147.5t-36 -199zM133 1229q0 -35 13.5 -63.5t48.5 -45.5l395 -198q37 12 60.5 39.5t23.5 66.5q0 20 -8.5 39.5 t-36.5 40.5l-377 262q-53 -16 -86 -55t-33 -86zM344 406q0 133 38 192t132 59q92 0 120 -58t28 -173q0 -139 -41 -195.5t-121 -56.5q-47 0 -77 10.5t-47.5 37t-24.5 71.5t-7 113z" />
<glyph unicode="&#xf3;" horiz-adv-x="999" d="M41 387q0 -213 110.5 -307t317.5 -94q104 0 193.5 28.5t155 86t103 144.5t37.5 206q0 213 -107.5 309t-315.5 96q-111 0 -202 -31.5t-155.5 -91t-100.5 -147.5t-36 -199zM344 406q0 133 38 192t132 59q92 0 120 -58t28 -173q0 -139 -41 -195.5t-121 -56.5q-47 0 -77 10.5 t-47.5 37t-24.5 71.5t-7 113zM377 1028q0 -39 23.5 -66.5t60.5 -39.5l397 198q35 16 48.5 45t13.5 64q0 47 -34 86t-87 55l-375 -262q-29 -20 -38 -39.5t-9 -40.5z" />
<glyph unicode="&#xf4;" horiz-adv-x="999" d="M41 387q0 -213 110.5 -307t317.5 -94q104 0 193.5 28.5t155 86t103 144.5t37.5 206q0 213 -107.5 309t-315.5 96q-111 0 -202 -31.5t-155.5 -91t-100.5 -147.5t-36 -199zM211 1061q0 -53 37 -79t96 -26l143 205l99 -162q18 -29 43.5 -38t62.5 -9q66 0 104 29t40 82 l-187 285q-29 10 -52.5 15t-51.5 5q-82 0 -121 -19.5t-70 -60.5l-98 -125q-27 -35 -36 -57.5t-9 -44.5zM344 406q0 133 38 192t132 59q92 0 120 -58t28 -173q0 -139 -41 -195.5t-121 -56.5q-47 0 -77 10.5t-47.5 37t-24.5 71.5t-7 113z" />
<glyph unicode="&#xf5;" horiz-adv-x="999" d="M41 387q0 -213 110.5 -307t317.5 -94q104 0 193.5 28.5t155 86t103 144.5t37.5 206q0 213 -107.5 309t-315.5 96q-111 0 -202 -31.5t-155.5 -91t-100.5 -147.5t-36 -199zM174 1057q0 -47 29.5 -79t97.5 -32q29 53 49.5 70.5t61.5 17.5l258 -4q98 -2 155.5 44t57.5 132 q0 47 -33 77t-98 30q-27 -47 -48.5 -64.5t-60.5 -15.5l-262 4q-104 2 -155.5 -50t-51.5 -130zM344 406q0 133 38 192t132 59q92 0 120 -58t28 -173q0 -139 -41 -195.5t-121 -56.5q-47 0 -77 10.5t-47.5 37t-24.5 71.5t-7 113z" />
<glyph unicode="&#xf6;" horiz-adv-x="999" d="M41 387q0 -213 110.5 -307t317.5 -94q104 0 193.5 28.5t155 86t103 144.5t37.5 206q0 213 -107.5 309t-315.5 96q-111 0 -202 -31.5t-155.5 -91t-100.5 -147.5t-36 -199zM147 1102q0 -66 35 -95.5t107 -29.5q86 0 119.5 40t33.5 95q0 53 -30.5 89t-106.5 36 q-78 0 -118 -38t-40 -97zM344 406q0 133 38 192t132 59q92 0 120 -58t28 -173q0 -139 -41 -195.5t-121 -56.5q-47 0 -77 10.5t-47.5 37t-24.5 71.5t-7 113zM582 1102q0 -66 34.5 -95.5t106.5 -29.5q86 0 120 40t34 95q0 53 -31 89t-107 36q-78 0 -117.5 -38t-39.5 -97z" />
<glyph unicode="&#xf7;" horiz-adv-x="1124" d="M37 477h1050v98h-1050v-98zM451 205q0 -43 32 -80q37 -33 78 -33q43 0 80 33q33 37 33 80q0 41 -33 78q-33 33 -80 32q-45 0 -78 -32q-33 -37 -32 -78zM451 844q0 -47 32 -78q31 -33 78 -33t78 33q33 33 33 78t-33 78q-31 33 -78 32q-47 0 -78 -32q-33 -31 -32 -78z" />
<glyph unicode="&#xf8;" horiz-adv-x="978" d="M37 387q0 -139 50 -230t142 -126l-84 -189q16 -29 46 -40t59 -11q35 0 54.5 14.5t29.5 36.5l65 146q14 0 29.5 -1t30.5 -1q104 0 192 28.5t152.5 87t101.5 145.5t37 204q0 268 -178 358l84 180q-18 29 -51 44.5t-62 15.5q-41 0 -59.5 -18.5t-38.5 -61.5l-49 -115 q-14 2 -31 2h-33q-111 0 -201 -31.5t-153.5 -91t-98 -147.5t-34.5 -199zM299 403q0 156 48 221.5t159 65.5h10l-197 -454q-12 39 -16 78.5t-4 88.5zM467 143l199 443q10 -37 14 -76t4 -84q0 -133 -41 -209t-154 -76h-8t-14 2z" />
<glyph unicode="&#xf9;" horiz-adv-x="1107" d="M14 731q0 61 41 90t146 29q68 0 110.5 -6t68.5 -24.5t36 -51.5t10 -84q0 -25 -1 -78t-2 -111.5t-2 -109.5t-1 -74q0 -61 19.5 -92t88.5 -31q53 0 90 25t60 57v271v121q0 53 4 100q2 90 154 90q31 0 74.5 -6.5t70.5 -18.5l-2 -639l104 -4q10 -16 14.5 -37.5t4.5 -44.5 q0 -29 -9.5 -50t-33 -34.5t-64.5 -20.5t-104 -7q-61 0 -117.5 7t-87.5 21l23 164q-33 -113 -109 -153.5t-186 -40.5q-141 0 -216 58t-75 208q0 29 1 80t2 108.5t2 114.5t1 98l-96 2q-8 14 -13.5 36t-5.5 38zM109 1229q0 -35 13 -63.5t48 -45.5l395 -198q37 12 60.5 39.5 t23.5 66.5q0 20 -8 39.5t-37 40.5l-377 262q-53 -16 -85.5 -55t-32.5 -86z" />
<glyph unicode="&#xfa;" horiz-adv-x="1107" d="M14 731q0 61 41 90t146 29q68 0 110.5 -6t68.5 -24.5t36 -51.5t10 -84q0 -25 -1 -78t-2 -111.5t-2 -109.5t-1 -74q0 -61 19.5 -92t88.5 -31q53 0 90 25t60 57v271v121q0 53 4 100q2 90 154 90q31 0 74.5 -6.5t70.5 -18.5l-2 -639l104 -4q10 -16 14.5 -37.5t4.5 -44.5 q0 -29 -9.5 -50t-33 -34.5t-64.5 -20.5t-104 -7q-61 0 -117.5 7t-87.5 21l23 164q-33 -113 -109 -153.5t-186 -40.5q-141 0 -216 58t-75 208q0 29 1 80t2 108.5t2 114.5t1 98l-96 2q-8 14 -13.5 36t-5.5 38zM430 1028q0 -39 23.5 -66.5t60.5 -39.5l397 198q35 16 48.5 45 t13.5 64q0 47 -34 86t-87 55l-375 -262q-29 -20 -38 -39.5t-9 -40.5z" />
<glyph unicode="&#xfb;" horiz-adv-x="1107" d="M14 731q0 61 41 90t146 29q68 0 110.5 -6t68.5 -24.5t36 -51.5t10 -84q0 -25 -1 -78t-2 -111.5t-2 -109.5t-1 -74q0 -61 19.5 -92t88.5 -31q53 0 90 25t60 57v271v121q0 53 4 100q2 90 154 90q31 0 74.5 -6.5t70.5 -18.5l-2 -639l104 -4q10 -16 14.5 -37.5t4.5 -44.5 q0 -29 -9.5 -50t-33 -34.5t-64.5 -20.5t-104 -7q-61 0 -117.5 7t-87.5 21l23 164q-33 -113 -109 -153.5t-186 -40.5q-141 0 -216 58t-75 208q0 29 1 80t2 108.5t2 114.5t1 98l-96 2q-8 14 -13.5 36t-5.5 38zM246 1061q0 -53 36.5 -79t96.5 -26l143 205l99 -162 q18 -29 42.5 -38t63.5 -9q63 0 102 29t41 82l-188 285q-29 10 -51.5 15t-50.5 5q-41 0 -71 -5t-51.5 -14.5t-38 -24.5t-32.5 -36l-96 -125q-29 -35 -37 -57.5t-8 -44.5z" />
<glyph unicode="&#xfc;" horiz-adv-x="1107" d="M14 731q0 61 41 90t146 29q68 0 110.5 -6t68.5 -24.5t36 -51.5t10 -84q0 -25 -1 -78t-2 -111.5t-2 -109.5t-1 -74q0 -61 19.5 -92t88.5 -31q53 0 90 25t60 57v271v121q0 53 4 100q2 90 154 90q31 0 74.5 -6.5t70.5 -18.5l-2 -639l104 -4q10 -16 14.5 -37.5t4.5 -44.5 q0 -29 -9.5 -50t-33 -34.5t-64.5 -20.5t-104 -7q-61 0 -117.5 7t-87.5 21l23 164q-33 -113 -109 -153.5t-186 -40.5q-141 0 -216 58t-75 208q0 29 1 80t2 108.5t2 114.5t1 98l-96 2q-8 14 -13.5 36t-5.5 38zM186 1102q0 -66 35 -95.5t107 -29.5q86 0 118.5 40t32.5 95 q0 53 -29.5 89t-105.5 36q-78 0 -118 -38t-40 -97zM621 1102q0 -66 34.5 -95.5t106.5 -29.5q86 0 118.5 40t32.5 95q0 53 -29.5 89t-105.5 36q-78 0 -117.5 -38t-39.5 -97z" />
<glyph unicode="&#xfd;" horiz-adv-x="960" d="M-2 -279q0 -45 35 -78.5t114 -33.5q80 0 137.5 12t104.5 44t89 88.5t91 144.5q20 35 50 91t63 119.5t64.5 128t56.5 115.5q45 98 72.5 162t43 106t19.5 70.5t4 57.5q0 100 -108 100q-23 0 -48.5 -3t-44.5 -11l-221 -553l-155 477q-10 29 -20.5 46t-29 27.5t-47 14.5 t-75.5 4q-98 0 -142.5 -26.5t-44.5 -86.5q0 -23 4 -44t15 -38l55 -4l194 -547q20 -53 44 -78.5t65 -29.5q-39 -66 -65.5 -102.5t-60.5 -54t-86 -21.5t-144 -4q-16 -16 -22.5 -43t-6.5 -50zM436 1059q0 -39 22.5 -66.5t59.5 -40.5l397 199q35 16 48.5 45t13.5 64 q0 47 -34 85.5t-85 55.5l-377 -264q-29 -18 -37 -38t-8 -40z" />
<glyph unicode="&#xfe;" horiz-adv-x="1040" d="M96 408q0 -307 1 -500t3 -240q6 -84 152 -84q43 0 84 6.5t63 16.5v395q23 -6 56.5 -11t79.5 -5q102 0 189 29.5t149.5 89t97.5 145.5t35 201q0 215 -84 308t-258 93q-104 0 -166 -35t-97 -96v506q-27 10 -70.5 16t-76.5 6q-145 0 -152 -100q-2 -35 -3 -108.5t-2 -173 t-1 -218.5v-241zM399 184v381q29 43 64 64.5t86 21.5q94 0 128 -59t34 -174q0 -123 -43 -185.5t-142 -62.5q-43 0 -68.5 3t-58.5 11z" />
<glyph unicode="&#xff;" horiz-adv-x="960" d="M-2 -279q0 -45 35 -78.5t114 -33.5q80 0 137.5 12t104.5 44t89 88.5t91 144.5q20 35 50 91t63 119.5t64.5 128t56.5 115.5q45 98 72.5 162t43 106t19.5 70.5t4 57.5q0 100 -108 100q-23 0 -48.5 -3t-44.5 -11l-221 -553l-155 477q-10 29 -20.5 46t-29 27.5t-47 14.5 t-75.5 4q-98 0 -142.5 -26.5t-44.5 -86.5q0 -23 4 -44t15 -38l55 -4l194 -547q20 -53 44 -78.5t65 -29.5q-39 -66 -65.5 -102.5t-60.5 -54t-86 -21.5t-144 -4q-16 -16 -22.5 -43t-6.5 -50zM178 1102q0 -66 35 -95.5t106 -29.5q86 0 120 40t34 95q0 53 -30.5 89t-104.5 36 q-78 0 -119 -38t-41 -97zM612 1102q0 -66 35 -95.5t107 -29.5q86 0 119.5 40t33.5 95q0 53 -30.5 89t-104.5 36q-78 0 -119 -38t-41 -97z" />
<glyph unicode="&#x152;" horiz-adv-x="1726" d="M49 500q0 -145 37 -243.5t105.5 -158t168 -86t224.5 -26.5q76 0 140 16t124 47q12 -16 35.5 -26.5t68.5 -16.5t116 -8t177 -2q133 0 216 6t129 21.5t62.5 42t16.5 69.5q0 39 -14 66h-510v250h276q102 0 141.5 31.5t39.5 92.5q0 16 -5.5 39t-13.5 37h-438v250h356 q102 0 142 37t40 98q0 23 -8 41.5t-18 32.5l-117 -4h-498q-133 0 -176 -31q-49 25 -98 36t-125 11q-143 0 -253.5 -45t-186.5 -126t-115 -195.5t-39 -255.5zM358 526q0 172 59.5 270.5t209.5 98.5q86 0 133 -17.5t74 -56.5v-24q0 -25 -1.5 -65t-1.5 -95v-111v-231 q-39 -47 -94 -73.5t-127 -26.5q-70 0 -118 16t-77.5 55t-43 102.5t-13.5 157.5z" />
<glyph unicode="&#x153;" horiz-adv-x="1531" d="M41 387q0 -213 110.5 -307t317.5 -94q90 0 150.5 20.5t123.5 67.5q104 -86 306 -86q197 0 311.5 42t114.5 128q0 29 -15.5 58.5t-48.5 39.5q-66 -33 -147.5 -49.5t-145.5 -16.5q-57 0 -93 13.5t-55.5 37t-26.5 57.5t-7 75h471q18 0 33.5 8t27 29.5t18.5 57.5t7 93 q0 135 -97.5 215t-265.5 80q-100 0 -181 -23.5t-144 -68.5q-47 47 -109.5 69.5t-160.5 22.5q-111 0 -202 -31.5t-155.5 -91t-100.5 -147.5t-36 -199zM344 406q0 133 38 192t132 59q66 0 101 -25.5t47 -60.5q-16 -37 -25.5 -89t-9.5 -99q0 -35 5 -77t11 -70 q-16 -27 -54 -44.5t-89 -17.5q-47 0 -77 10.5t-47.5 37t-24.5 71.5t-7 113zM942 510q10 80 48 116t108 36q66 0 83 -34t17 -87q0 -20 -2 -31h-254z" />
<glyph unicode="&#x178;" horiz-adv-x="1073" d="M20 991q0 -29 3.5 -44t9.5 -27l63 -2l297 -455q0 -174 1 -269.5t7 -130.5q12 -74 146 -73q41 0 88 5t72 19v469l254 338q59 78 75.5 120t16.5 77q0 39 -23.5 65.5t-87.5 26.5q-25 0 -46.5 -2t-47.5 -10l-264 -375l-176 291q-35 57 -65 75.5t-85 18.5q-123 0 -180.5 -25.5 t-57.5 -91.5zM236 1352q0 -66 34.5 -95.5t106.5 -29.5q86 0 118.5 40t32.5 95q0 51 -29.5 88t-105.5 37q-78 0 -117.5 -38t-39.5 -97zM670 1352q0 -66 34.5 -95.5t106.5 -29.5q86 0 119 40t33 95q0 51 -30 88t-106 37q-78 0 -117.5 -38t-39.5 -97z" />
<glyph unicode="&#x2c6;" horiz-adv-x="1026" d="M174 1061q0 -53 37 -79t96 -26l144 205l98 -162q18 -29 43.5 -38t62.5 -9q63 0 102.5 29t41.5 82l-189 285q-29 10 -51 15t-51 5q-41 0 -70.5 -5t-51 -14.5t-38 -24.5t-33.5 -36l-96 -125q-29 -35 -37 -57.5t-8 -44.5z" />
<glyph unicode="&#x2dc;" horiz-adv-x="968" d="M127 1057q0 -47 29.5 -79t97.5 -32q29 53 49.5 70.5t61.5 17.5l258 -4q98 -2 155.5 44t57.5 132q0 47 -33 77t-98 30q-27 -47 -48.5 -64.5t-60.5 -15.5l-262 4q-104 2 -155.5 -50t-51.5 -130z" />
<glyph unicode="&#x2000;" horiz-adv-x="822" />
<glyph unicode="&#x2001;" horiz-adv-x="1645" />
<glyph unicode="&#x2002;" horiz-adv-x="822" />
<glyph unicode="&#x2003;" horiz-adv-x="1645" />
<glyph unicode="&#x2004;" horiz-adv-x="548" />
<glyph unicode="&#x2005;" horiz-adv-x="411" />
<glyph unicode="&#x2006;" horiz-adv-x="274" />
<glyph unicode="&#x2007;" horiz-adv-x="274" />
<glyph unicode="&#x2008;" horiz-adv-x="205" />
<glyph unicode="&#x2009;" horiz-adv-x="329" />
<glyph unicode="&#x200a;" horiz-adv-x="91" />
<glyph unicode="&#x2010;" horiz-adv-x="702" d="M45 455q0 -27 7 -52.5t24 -46.5l418 -8q72 -2 114.5 25.5t42.5 93.5q0 29 -9 54.5t-19 39.5l-129 -4h-330q-55 0 -87 -27.5t-32 -74.5z" />
<glyph unicode="&#x2011;" horiz-adv-x="702" d="M45 455q0 -27 7 -52.5t24 -46.5l418 -8q72 -2 114.5 25.5t42.5 93.5q0 29 -9 54.5t-19 39.5l-129 -4h-330q-55 0 -87 -27.5t-32 -74.5z" />
<glyph unicode="&#x2012;" horiz-adv-x="702" d="M45 455q0 -27 7 -52.5t24 -46.5l418 -8q72 -2 114.5 25.5t42.5 93.5q0 29 -9 54.5t-19 39.5l-129 -4h-330q-55 0 -87 -27.5t-32 -74.5z" />
<glyph unicode="&#x2013;" horiz-adv-x="1024" d="M63 442q0 -23 3.5 -48.5t13.5 -37.5h864q8 10 12.5 38t4.5 50q0 23 -3.5 47.5t-13.5 36.5h-864q-8 -10 -12.5 -36.5t-4.5 -49.5z" />
<glyph unicode="&#x2014;" horiz-adv-x="2048" d="M-18 442q0 -23 3 -48.5t13 -37.5h2052q8 10 12 38t4 50q0 23 -3 47.5t-13 36.5h-2052q-8 -10 -12 -36.5t-4 -49.5z" />
<glyph unicode="&#x2018;" horiz-adv-x="630" d="M82 829q0 -115 60.5 -183t185.5 -68q92 0 136 46t44 111q0 18 -1 32.5t-9 31.5q-96 10 -134 38.5t-38 69.5q0 39 30.5 74t122.5 76q4 10 4 24q0 66 -84 66q-68 0 -126 -24.5t-100 -67.5t-66.5 -100.5t-24.5 -125.5z" />
<glyph unicode="&#x2019;" horiz-adv-x="630" d="M125 1001q0 -18 1 -32.5t9 -30.5q94 -10 132 -39t38 -70q0 -39 -30.5 -73.5t-122.5 -75.5q-2 -10 -2 -25q0 -66 83 -65q68 0 125.5 24.5t99.5 67.5t66.5 100t24.5 125q0 115 -59.5 183.5t-184.5 68.5q-92 0 -136 -46t-44 -112z" />
<glyph unicode="&#x201a;" horiz-adv-x="630" d="M125 145q0 -18 1 -32.5t9 -30.5q94 -10 132 -39t38 -70q0 -39 -30.5 -73.5t-122.5 -75.5q-2 -10 -2 -25q0 -66 83 -65q68 0 125.5 24.5t99.5 67.5t66.5 100t24.5 125q0 115 -59.5 183.5t-184.5 68.5q-92 0 -136 -46t-44 -112z" />
<glyph unicode="&#x201c;" horiz-adv-x="1112" d="M82 829q0 -115 60.5 -183t185.5 -68q92 0 136 46t44 111q0 18 -1 32.5t-9 31.5q-96 10 -134 38.5t-38 69.5q0 39 30.5 74t122.5 76q4 10 4 24q0 66 -84 66q-68 0 -126 -24.5t-100 -67.5t-66.5 -100.5t-24.5 -125.5zM563 829q0 -115 60.5 -183t185.5 -68q92 0 136 46 t44 111q0 18 -1 32.5t-9 31.5q-96 10 -134 38.5t-38 69.5q0 39 30.5 74t123.5 76q4 10 4 24q0 66 -84 66q-68 0 -126.5 -24.5t-100.5 -67.5t-66.5 -100.5t-24.5 -125.5z" />
<glyph unicode="&#x201d;" horiz-adv-x="1112" d="M125 1001q0 -18 1 -32.5t9 -30.5q94 -10 132 -39t38 -70q0 -39 -30.5 -73.5t-122.5 -75.5q-2 -10 -2 -25q0 -66 83 -65q68 0 125.5 24.5t99.5 67.5t66.5 100t24.5 125q0 115 -59.5 183.5t-184.5 68.5q-92 0 -136 -46t-44 -112zM606 1001q0 -18 1 -32.5t9 -30.5 q94 -10 132 -39t38 -70q0 -39 -30.5 -73.5t-122.5 -75.5q-2 -10 -2 -25q0 -66 84 -65q68 0 125 24.5t99 67.5t66.5 100t24.5 125q0 115 -59.5 183.5t-184.5 68.5q-92 0 -136 -46t-44 -112z" />
<glyph unicode="&#x201e;" horiz-adv-x="1112" d="M125 145q0 -18 1 -32.5t9 -30.5q94 -10 132 -39t38 -70q0 -39 -30.5 -73.5t-122.5 -75.5q-2 -10 -2 -25q0 -66 83 -65q68 0 125.5 24.5t99.5 67.5t66.5 100t24.5 125q0 115 -59.5 183.5t-184.5 68.5q-92 0 -136 -46t-44 -112zM606 145q0 -18 1 -32.5t9 -30.5 q94 -10 132 -39t38 -70q0 -39 -30.5 -73.5t-122.5 -75.5q-2 -10 -2 -25q0 -66 84 -65q68 0 125 24.5t99 67.5t66.5 100t24.5 125q0 115 -59.5 183.5t-184.5 68.5q-92 0 -136 -46t-44 -112z" />
<glyph unicode="&#x2022;" horiz-adv-x="733" d="M129 451q0 -115 63.5 -162t165.5 -47q129 0 188.5 65.5t59.5 159.5q0 88 -57 145.5t-170 57.5q-121 0 -185.5 -64.5t-64.5 -154.5z" />
<glyph unicode="&#x2026;" horiz-adv-x="2023" d="M164 141q0 -86 44 -118.5t122 -32.5q98 0 140 48t42 116t-36 107.5t-124 39.5q-96 0 -142 -44t-46 -116zM838 141q0 -86 44 -118.5t122 -32.5q98 0 140 48t42 116t-36 107.5t-124 39.5q-96 0 -142 -44t-46 -116zM1511 141q0 -86 44 -118.5t122 -32.5q98 0 140.5 48 t42.5 116t-36 107.5t-124 39.5q-96 0 -142.5 -44t-46.5 -116z" />
<glyph unicode="&#x202f;" horiz-adv-x="329" />
<glyph unicode="&#x2039;" horiz-adv-x="673" d="M127 422q0 -33 12.5 -58.5t34.5 -52.5l266 -307q45 0 80 24.5t35 75.5q0 45 -41 103l-154 219l156 219q23 29 31 49.5t8 48.5q0 39 -26.5 68t-79.5 31l-279 -318q-43 -47 -43 -102z" />
<glyph unicode="&#x203a;" horiz-adv-x="673" d="M119 100q0 -39 27.5 -67.5t80.5 -30.5l279 317q41 47 41 103q0 33 -11.5 58.5t-33.5 51.5l-269 308q-45 0 -78.5 -24.5t-33.5 -76.5q0 -49 39 -102l153 -219l-155 -219q-23 -29 -31 -49.5t-8 -49.5z" />
<glyph unicode="&#x205f;" horiz-adv-x="411" />
<glyph unicode="&#x20ac;" horiz-adv-x="944" d="M20 410q0 -25 5.5 -47.5t21.5 -40.5h66q16 -172 117.5 -253t297.5 -81q166 0 262.5 35.5t96.5 121.5q0 29 -13.5 57.5t-46.5 41.5q-57 -27 -116.5 -39t-112.5 -12q-86 0 -131 28.5t-59 93.5l180 -2q63 -2 102 23t39 84q0 27 -7 49.5t-17 34.5l-117 -2h-182 q14 78 64 111.5t140 33.5q49 0 104.5 -9t104.5 -30q33 16 47.5 47t14.5 66q0 59 -62.5 96t-200.5 37q-201 0 -330.5 -92t-164.5 -260q-47 -2 -75 -26.5t-28 -65.5z" />
<glyph unicode="&#x2122;" horiz-adv-x="1507" d="M92 1034q0 -37 19 -63h133q0 -41 -1 -84t-1 -96q0 -59 1 -117t3 -80q4 -31 23.5 -45t78.5 -14q31 0 57.5 4t45.5 14v414h49q53 0 79.5 18.5t26.5 65.5q0 33 -20 59l-97 -4h-290q-106 0 -107 -72zM645 1030q0 -16 2 -28.5t12 -24.5h48q-2 -37 -3.5 -85t-1.5 -97 q0 -78 2.5 -137.5t6.5 -82.5t21.5 -30.5t58.5 -7.5q33 0 63 10v313l100 -213q12 -27 29.5 -34t56.5 -7q47 0 78 19q6 12 26.5 51t41 80t36.5 72l17 32v-268q0 -33 20.5 -45t67.5 -12q41 0 82 12v450l6 80q-41 35 -121 35q-39 0 -58 -13.5t-36 -41.5l-129 -236l-115 228 q-16 29 -46.5 45t-90.5 16q-94 0 -134 -19.5t-40 -60.5z" />
<glyph unicode="&#xe000;" horiz-adv-x="849" d="M0 0v850h850v-850h-850z" />
</font>
</defs>
</svg>
